<?xml version="1.0" standalone="no"?>
<!DOCTYPE svg PUBLIC "-//W3C//DTD SVG 20010904//EN"
 "http://www.w3.org/TR/2001/REC-SVG-20010904/DTD/svg10.dtd">
<svg version="1.0" xmlns="http://www.w3.org/2000/svg"
 width="600.000000pt" height="600.000000pt" viewBox="0 0 600.000000 600.000000"
 preserveAspectRatio="xMidYMid meet">
<metadata>
Created by potrace 1.11, written by Peter Selinger 2001-2013
</metadata>
<g transform="translate(0.000000,600.000000) scale(0.100000,-0.100000)"
fill="#000000" stroke="none">
<path d="M3448 5844 c-163 -24 -361 -104 -570 -230 -102 -62 -250 -167 -297
-212 -91 -87 -198 -177 -211 -178 -8 -1 -37 4 -62 11 -29 7 -45 8 -41 2 4 -6
0 -8 -10 -4 -10 4 -21 -1 -27 -11 -10 -15 -10 -14 -5 4 5 19 0 22 -37 27 -24
3 -55 4 -70 3 -16 -2 -28 1 -28 5 0 5 -5 9 -12 9 -6 0 -8 -3 -5 -7 4 -3 -2
-13 -13 -20 -11 -8 -18 -19 -14 -24 4 -6 11 -3 19 8 9 14 25 18 61 17 32 0 48
-5 47 -12 -4 -16 10 -15 26 1 7 6 12 8 11 2 -6 -28 1 -46 17 -43 12 2 18 -5
19 -24 2 -15 -2 -30 -7 -33 -5 -4 -7 -11 -4 -16 7 -11 26 -12 24 -1 -4 24 1
32 14 21 11 -11 10 -16 -2 -29 -9 -9 -19 -15 -23 -13 -3 2 -8 0 -11 -4 -2 -5
-3 -3 -1 3 1 6 -11 21 -27 33 -16 12 -29 17 -29 11 0 -5 9 -15 20 -22 11 -7
20 -17 20 -22 0 -4 -7 -3 -15 4 -13 11 -15 9 -11 -11 3 -13 5 -26 5 -29 1 -3
5 1 10 9 5 8 11 9 15 3 3 -5 -4 -21 -17 -35 -213 -240 -401 -470 -510 -624
l-72 -103 -40 5 c-182 24 -536 24 -650 -1 -11 -2 -31 -6 -45 -8 -43 -7 -212
-65 -270 -92 -321 -151 -491 -432 -446 -739 45 -313 241 -672 546 -1005 89
-97 97 -116 79 -183 -5 -16 -4 -25 2 -22 5 4 9 2 9 -4 0 -5 -6 -11 -12 -14 -7
-2 -10 -8 -5 -13 4 -4 15 0 24 9 14 14 14 18 2 33 -8 10 -9 15 -3 11 7 -4 14
0 18 8 3 8 -3 19 -12 24 -15 9 -14 10 5 8 12 0 19 -5 16 -11 -4 -6 1 -6 13 -2
10 4 15 4 11 0 -4 -4 -1 -14 6 -22 10 -13 9 -14 -10 -4 -16 9 -22 9 -26 -1 -5
-15 13 -57 25 -57 5 0 6 5 3 10 -3 5 -2 10 3 10 5 0 14 10 21 22 9 18 10 19 6
3 -11 -34 -10 -37 3 -42 7 -3 12 -1 11 4 -1 4 -1 15 0 23 1 13 2 13 11 0 5 -9
5 -19 -1 -26 -13 -15 -68 -12 -78 5 -5 8 -11 9 -15 3 -3 -5 1 -15 9 -22 23
-19 64 -19 89 1 23 18 23 18 97 -48 59 -52 266 -226 394 -331 11 -9 61 -47
110 -84 50 -38 99 -75 110 -84 11 -8 33 -23 48 -32 28 -17 28 -18 21 -87 -12
-130 -13 -150 -14 -295 0 -139 4 -197 15 -248 3 -13 0 -31 -7 -40 -10 -12 -10
-14 -1 -8 8 4 13 2 14 -6 2 -35 8 -60 33 -148 128 -442 443 -683 816 -626 308
48 690 257 985 540 99 94 89 91 208 71 25 -5 37 -3 37 5 0 7 -9 9 -22 5 -21
-5 -22 -5 -4 6 16 10 22 8 35 -10 11 -15 23 -20 34 -15 10 3 24 1 32 -6 9 -7
18 -10 21 -7 3 3 -6 13 -20 22 -22 15 -29 15 -43 4 -9 -8 -14 -9 -10 -3 16 28
-50 51 -70 25 -7 -9 -13 -11 -13 -5 0 15 25 36 33 27 4 -3 7 -2 7 4 0 21 -14
21 -44 -1 -17 -13 -39 -23 -48 -23 -22 0 -22 1 -1 18 14 12 16 12 9 0 -6 -9
-5 -12 5 -9 8 3 13 11 11 18 -3 15 36 60 52 60 6 0 -2 -11 -19 -24 -16 -13
-27 -27 -23 -31 4 -4 17 3 29 14 13 12 29 19 36 17 7 -3 19 4 26 14 8 11 17
17 20 14 3 -4 -4 -15 -16 -25 -26 -21 -11 -25 17 -4 10 8 23 12 27 9 5 -3 9
-1 9 4 0 6 -16 19 -35 31 l-35 20 3 -21 c1 -11 -4 -22 -11 -24 -7 -1 -8 0 -2
3 16 8 11 26 -6 19 -16 -6 5 20 227 280 147 173 296 361 360 455 l40 60 77 -8
c104 -11 449 -10 542 1 41 5 83 9 93 10 9 0 17 4 17 8 0 4 8 6 18 6 33 -1 207
63 290 107 266 141 403 347 404 605 0 175 -40 326 -144 537 -103 211 -235 397
-432 608 -36 38 -61 72 -56 75 5 3 9 14 8 25 0 11 6 53 14 93 8 39 11 72 6 72
-4 0 -8 8 -8 18 0 15 2 15 11 2 9 -13 10 -13 8 0 -2 13 2 62 16 182 2 16 -3
29 -11 32 -12 4 -12 2 -4 -14 9 -17 8 -19 -7 -13 -15 5 -16 4 -7 -8 7 -8 12
-27 12 -43 0 -16 -4 -23 -8 -16 -5 8 -9 7 -14 -5 -9 -24 -8 -25 12 -19 10 4
13 3 6 -3 -7 -4 -10 -20 -9 -35 4 -36 -11 -45 -36 -22 -11 10 -19 12 -19 6 0
-7 9 -17 20 -24 11 -7 20 -17 20 -22 0 -6 -5 -5 -12 2 -14 14 -28 16 -28 4 0
-5 11 -14 24 -22 28 -14 30 -43 5 -58 -24 -15 -37 18 -14 34 10 7 12 15 6 18
-17 11 -41 -35 -30 -56 8 -15 7 -24 -5 -37 -20 -22 -21 -37 -1 -21 10 9 15 9
15 1 0 -6 -6 -11 -12 -11 -7 0 0 -12 15 -25 15 -14 24 -25 19 -25 -5 0 -31 23
-59 50 -28 28 -48 50 -44 50 4 0 12 -5 19 -12 9 -9 12 -9 12 0 0 7 5 12 11 12
8 0 8 -5 -1 -15 -7 -8 -8 -15 -2 -15 13 0 36 29 29 37 -4 3 -26 6 -49 6 -51 0
-41 -7 -263 188 -131 116 -397 324 -507 399 -30 20 -37 30 -33 50 28 142 25
549 -4 690 -19 90 -82 264 -122 336 -167 304 -419 436 -741 388z m226 -393
c85 -42 182 -176 225 -311 12 -40 36 -153 46 -220 9 -54 15 -282 8 -292 -2 -5
-30 5 -61 22 -31 16 -104 51 -162 78 -58 28 -145 69 -195 92 -209 98 -265 124
-355 161 -52 22 -101 41 -110 42 -8 1 -20 6 -27 10 -13 8 -158 56 -248 83 -33
9 -64 21 -69 25 -11 9 176 135 274 183 41 21 83 42 93 47 45 24 186 71 270 89
120 26 245 22 311 -9z m-1394 -246 c-8 -9 -9 -15 -2 -15 6 0 16 8 21 18 6 9
11 12 11 6 0 -5 -9 -20 -20 -32 -22 -23 -36 -30 -25 -11 4 5 -1 20 -12 32 -13
16 -13 18 -2 9 14 -10 18 -10 23 4 4 9 9 14 13 11 3 -4 0 -13 -7 -22z m67 0
c0 -8 -4 -15 -9 -15 -5 0 -6 -5 -3 -10 4 -6 2 -9 -4 -8 -5 2 -16 -6 -24 -16
-11 -15 -16 -16 -22 -6 -5 8 -4 11 3 6 6 -3 13 3 17 14 3 11 11 20 16 20 5 0
9 7 9 15 0 8 4 15 8 15 5 0 9 -7 9 -15z m373 -101 c0 -8 -19 -13 -24 -6 -3 5
1 9 9 9 8 0 15 -2 15 -3z m-16 -33 c-2 -3 -12 3 -22 13 -16 17 -16 18 5 5 12
-7 20 -15 17 -18z m86 25 c0 -2 -8 -10 -17 -17 -16 -13 -17 -12 -4 4 13 16 21
21 21 13z m22 -44 c-3 -9 -1 -13 5 -9 5 3 10 0 10 -8 0 -12 -3 -12 -16 -2 -12
10 -14 9 -9 -4 4 -9 1 -16 -7 -16 -8 0 -11 7 -7 15 3 9 1 13 -5 9 -5 -3 -10 0
-10 8 0 12 3 12 16 2 12 -10 14 -9 9 4 -4 9 -1 16 7 16 8 0 11 -7 7 -15z
m-190 -17 c-8 -16 -9 -16 -15 -1 -4 10 -3 15 3 11 6 -3 10 -1 10 6 0 7 3 10 6
6 3 -3 2 -13 -4 -22z m313 -35 l20 -25 -22 19 c-13 11 -23 24 -23 29 0 6 1 8
3 6 1 -2 11 -15 22 -29z m-64 -22 c-11 -11 -13 -10 -7 0 4 7 2 21 -5 30 -12
15 -11 15 6 0 16 -15 17 -20 6 -30z m-245 20 c3 -4 -1 -5 -10 -4 -8 1 -18 5
-22 8 -3 4 1 5 10 4 8 -1 18 -5 22 -8z m163 -3 c3 -4 -7 -4 -22 -1 -16 3 -27
0 -27 -6 0 -6 -3 -9 -6 -5 -3 3 -3 10 0 16 6 10 43 7 55 -4z m216 6 c-9 -8
-36 -10 -30 -2 2 4 11 8 20 8 8 0 13 -3 10 -6z m-450 -11 c-3 -5 1 -10 10 -10
10 0 13 5 9 12 -4 7 -3 8 5 4 6 -4 9 -12 6 -17 -4 -5 2 -9 12 -9 28 0 284 -90
390 -136 159 -70 732 -353 862 -425 l74 -41 -6 -47 c-8 -63 -51 -241 -94 -386
-93 -311 -279 -749 -448 -1055 -41 -72 -45 -84 -31 -92 9 -5 13 -14 10 -20 -4
-7 -2 -8 4 -4 7 4 12 3 12 -2 0 -5 9 -19 20 -32 27 -31 26 -17 -2 20 -12 16
-19 32 -16 35 3 4 16 -8 28 -24 12 -17 27 -31 35 -31 7 0 15 -7 19 -15 6 -17
-4 -20 -22 -5 -9 7 -9 7 -2 -2 7 -8 4 -18 -8 -32 -9 -11 2 -5 26 13 40 31 51
43 35 39 -5 -1 -18 2 -31 6 -22 7 -22 8 -5 22 17 13 17 14 -2 8 -17 -5 -18 -4
-5 6 13 10 13 11 -2 6 -10 -3 -20 -1 -23 5 -4 5 -11 6 -17 3 -7 -5 -8 -2 -3 6
6 9 4 11 -5 5 -9 -5 -11 -4 -6 3 4 7 3 12 -1 12 -5 0 -9 9 -10 20 -1 11 3 20
8 20 6 0 7 -5 3 -11 -4 -8 1 -9 17 -4 22 7 23 6 6 -7 -18 -13 -18 -15 -1 -29
16 -12 17 -12 12 2 -4 9 2 20 15 28 18 11 20 11 10 0 -15 -15 -17 -39 -4 -39
5 0 11 6 14 13 2 6 3 4 2 -5 -2 -10 1 -21 7 -24 5 -3 7 -13 4 -21 -4 -10 -2
-13 8 -10 22 9 29 -24 9 -45 -16 -18 -16 -20 2 -36 18 -16 18 -16 5 1 -10 14
-10 21 -2 29 9 9 12 8 12 -4 0 -21 16 -32 26 -17 4 8 3 9 -4 5 -7 -4 -12 0
-12 10 0 10 3 14 7 11 3 -4 13 -1 21 6 13 10 14 8 8 -11 -5 -16 -3 -22 8 -22
8 0 18 4 21 10 4 6 -1 7 -12 3 -17 -6 -17 -5 0 14 9 11 15 23 12 26 -3 4 -2 5
1 2 4 -2 13 2 21 10 8 8 20 15 26 15 7 0 0 -10 -15 -21 -16 -11 -28 -25 -28
-31 0 -6 7 -5 16 3 9 8 28 12 42 11 13 -2 22 0 19 5 -3 5 3 9 13 10 18 2 18 1
0 -17 -11 -11 -17 -27 -15 -38 2 -13 -3 -18 -20 -18 -13 0 -22 4 -19 8 3 4 -3
5 -13 2 -14 -4 -15 -3 -4 4 9 7 10 12 2 16 -6 4 -12 2 -12 -3 -1 -6 -2 -17 -3
-23 -3 -17 14 -51 21 -44 3 3 0 12 -7 21 -7 8 -8 15 -2 15 5 0 15 -7 22 -15
10 -12 10 -18 -1 -32 -10 -11 -10 -14 -1 -9 7 4 12 2 12 -5 0 -6 8 -1 19 12
10 13 16 30 13 38 -3 9 -1 12 6 7 8 -5 10 -1 5 10 -4 10 -2 15 4 11 23 -14
243 435 368 753 58 147 150 432 185 570 37 151 39 157 48 145 4 -6 41 -37 82
-70 210 -167 583 -508 611 -558 8 -13 2 -44 -21 -120 -18 -56 -34 -109 -38
-117 -3 -8 -6 -17 -6 -20 -1 -3 -5 -11 -9 -17 -5 -8 -3 -13 3 -13 7 0 6 -5 -2
-14 -8 -8 -33 -62 -57 -121 -36 -89 -40 -109 -30 -123 11 -14 11 -15 -1 -5
-11 11 -25 -10 -79 -120 -35 -72 -65 -134 -66 -137 -4 -16 -256 -513 -278
-548 -32 -50 -22 -50 -262 8 -345 85 -692 218 -1077 412 -98 49 -181 88 -184
88 -4 -1 -10 2 -13 7 -3 5 -24 19 -45 32 -22 12 -35 16 -28 9 7 -9 8 -19 2
-28 -8 -12 -10 -11 -10 5 0 15 -5 11 -19 -15 -11 -19 -24 -34 -31 -32 -6 1 -8
-3 -5 -9 5 -8 10 -8 18 0 8 8 16 6 30 -6 15 -14 18 -14 15 -3 -2 8 3 14 10 12
8 -1 11 2 8 7 -4 5 -16 8 -27 6 -12 -2 -19 1 -17 7 6 16 36 18 42 3 2 -8 17
-11 35 -9 17 2 31 -1 31 -7 0 -6 -5 -7 -12 -3 -8 5 -9 1 -5 -12 7 -18 7 -18
-7 0 -14 17 -16 17 -43 -9 -15 -15 -21 -25 -12 -22 9 3 22 1 30 -5 11 -8 11
-9 -3 -5 -9 3 -22 -2 -30 -10 -11 -15 -10 -16 7 -10 14 5 12 1 -8 -14 -15 -11
-25 -25 -22 -30 4 -5 -2 -6 -12 -2 -16 6 -16 5 -4 -10 11 -14 11 -21 -4 -43
-12 -19 -14 -29 -6 -37 6 -6 11 -20 10 -31 -1 -18 -2 -17 -8 4 -5 20 -13 25
-37 25 -17 -1 -31 4 -31 11 0 7 7 10 16 7 10 -3 12 -1 6 4 -15 12 -18 36 -4
27 8 -5 9 -3 4 6 -6 9 -4 11 5 5 9 -6 11 -4 5 6 -7 11 -6 12 7 2 15 -13 28 -8
28 9 0 5 -4 6 -10 3 -14 -9 -32 4 -24 17 4 7 9 6 14 -2 5 -9 9 -9 14 -1 4 6 2
11 -3 11 -6 0 -11 5 -11 11 0 5 5 7 12 3 7 -5 8 -3 3 6 -6 9 -4 11 6 5 11 -7
11 -5 -1 10 -9 12 -10 16 -2 11 7 -4 12 -4 11 1 -1 4 -1 15 0 23 1 12 3 13 10
1 5 -8 11 -9 15 -3 10 17 -18 21 -45 6 -13 -7 -19 -13 -12 -14 9 0 11 -14 3
-40 -1 -3 -6 4 -11 15 -8 17 -8 16 -4 -7 4 -23 2 -26 -16 -23 -20 4 -21 3 -4
-15 16 -17 16 -19 -4 -29 -16 -9 -22 -8 -31 6 -11 17 -11 17 -6 1 3 -11 0 -18
-7 -18 -8 0 -7 -3 2 -9 8 -5 21 -6 30 -3 14 5 14 3 3 -11 -8 -8 -19 -14 -26
-11 -8 3 -17 -3 -20 -13 -7 -16 -9 -15 -21 7 -8 14 -14 19 -15 13 0 -7 9 -22
20 -33 10 -10 15 -22 10 -25 -5 -3 -11 -1 -15 5 -3 5 -11 10 -18 10 -6 0 4
-11 23 -25 32 -23 64 -25 41 -2 -6 6 -11 15 -11 21 0 5 3 6 6 3 4 -3 15 -2 25
4 15 8 18 6 13 -8 -5 -15 -4 -15 5 -3 5 8 14 11 18 6 4 -5 2 -11 -5 -13 -6 -3
-9 -9 -6 -14 3 -6 12 -5 22 3 14 10 15 10 5 -1 -6 -7 -9 -21 -5 -30 3 -9 -7
-1 -22 17 -28 33 -51 38 -25 5 9 -11 10 -14 2 -9 -7 4 -13 2 -13 -3 0 -6 5
-11 10 -11 6 0 12 0 15 0 3 0 14 -9 25 -20 23 -23 62 -43 305 -161 316 -153
651 -277 969 -359 81 -21 150 -41 153 -44 5 -5 -110 -154 -178 -231 -14 -16
-63 -73 -108 -125 -46 -52 -143 -156 -217 -231 -148 -151 -135 -145 -232 -109
-18 7 -39 9 -48 6 -8 -3 -13 -2 -10 2 3 5 -45 26 -107 47 -62 21 -128 46 -147
55 -19 10 -39 19 -45 20 -51 14 -645 304 -852 417 -81 43 -83 45 -78 76 13 79
30 152 66 287 97 366 255 748 504 1220 11 19 20 43 22 54 3 16 0 15 -18 -5
-16 -18 -19 -20 -15 -6 3 11 2 16 -4 12 -6 -3 -10 -2 -10 3 0 6 -7 13 -16 16
-8 3 -12 2 -9 -3 3 -5 1 -12 -4 -15 -5 -3 -12 1 -15 9 -3 9 1 18 9 21 8 4 15
11 15 16 0 6 -7 5 -15 -2 -13 -10 -19 -10 -35 5 -11 10 -20 15 -20 11 0 -4 -6
-1 -14 6 -8 7 -11 17 -8 22 3 5 0 6 -7 2 -6 -4 -23 -10 -38 -12 -22 -4 -24 -3
-14 10 10 12 8 18 -13 31 -14 10 -26 24 -26 33 0 8 -3 12 -7 9 -3 -4 0 -18 7
-32 10 -19 10 -28 1 -38 -9 -11 -7 -17 6 -28 15 -12 16 -12 10 4 -8 21 2 49
15 41 5 -4 5 -10 -1 -18 -13 -15 -2 -30 24 -33 39 -4 55 -9 68 -22 10 -11 8
-12 -10 -7 -18 6 -21 4 -18 -14 2 -11 7 -25 11 -32 4 -7 3 -8 -4 -4 -7 4 -12
3 -12 -2 0 -14 -28 -23 -35 -11 -4 5 -1 8 7 7 7 -2 12 3 10 10 -1 8 2 11 8 7
6 -4 9 1 7 12 -7 33 -19 53 -29 47 -5 -3 -4 -12 3 -20 14 -17 10 -23 -19 -29
-16 -3 -19 0 -15 12 5 12 3 14 -8 8 -11 -6 -12 -5 -1 6 17 18 15 34 -2 20 -8
-7 -17 -8 -20 -3 -3 5 -17 7 -30 5 -18 -4 -23 -10 -21 -25 3 -12 1 -17 -3 -14
-4 4 -7 26 -7 49 0 27 -5 42 -15 44 -12 4 -12 3 -1 -5 8 -6 9 -12 3 -16 -5 -3
-12 1 -16 9 -6 16 3 24 34 30 11 2 18 0 15 -5 -3 -4 3 -7 12 -6 10 2 22 -2 26
-8 6 -7 7 -6 4 4 -2 8 -10 14 -16 13 -6 -2 -10 7 -8 18 1 12 -4 24 -10 26 -7
3 -13 0 -13 -7 0 -6 5 -8 10 -5 6 3 10 1 10 -5 0 -7 -6 -10 -12 -7 -7 2 -13
12 -13 23 0 14 6 18 25 17 22 -2 23 -1 7 8 -18 11 -47 -3 -47 -22 0 -4 -14
-28 -30 -53 -44 -65 -186 -348 -262 -521 -121 -275 -211 -535 -284 -815 -19
-74 -36 -136 -38 -137 -9 -10 -399 323 -571 489 -102 98 -180 184 -148 165 14
-9 28 47 17 64 -4 8 -3 9 4 5 11 -7 13 -3 16 37 1 6 4 14 7 17 12 9 39 112 32
123 -3 5 -1 7 4 4 12 -7 25 32 20 55 -2 7 -2 10 0 5 3 -4 9 -4 14 -1 6 3 5 11
-2 20 -10 12 -10 14 0 12 6 -2 20 19 30 47 41 113 314 675 435 898 l48 88 42
-5 c168 -23 577 -150 857 -266 159 -66 536 -247 655 -316 42 -23 46 -24 27 -5
-13 12 -23 27 -23 34 1 7 6 5 13 -5 12 -15 14 -15 25 3 7 11 18 17 25 14 7 -4
5 -1 -4 7 -9 7 -18 17 -20 23 -5 13 -27 16 -35 4 -3 -5 2 -9 11 -9 10 0 13 -5
9 -12 -4 -7 -3 -8 4 -4 7 4 12 3 12 -3 0 -26 -20 -17 -44 19 -29 44 -31 50
-16 50 5 0 9 -5 7 -11 -1 -6 4 -14 12 -17 9 -3 11 0 6 8 -5 8 -4 11 2 7 6 -4
14 0 17 8 4 11 0 15 -11 13 -11 -2 -18 4 -20 17 -2 17 -2 17 5 3 6 -16 10 -16
36 -3 36 19 45 19 20 0 -16 -13 -16 -14 -1 -9 19 7 21 1 8 -24 -6 -12 -5 -24
5 -37 8 -10 14 -14 14 -9 0 6 -5 15 -12 22 -9 9 -9 12 1 12 7 0 9 4 6 10 -3 5
3 15 14 22 16 10 18 15 8 27 -10 12 -9 14 6 8 10 -4 16 -3 14 1 -3 4 7 16 21
26 25 19 25 19 18 0 -6 -15 -5 -17 5 -6 9 8 10 15 3 22 -8 8 -15 6 -24 -5 -7
-8 -17 -15 -22 -15 -5 0 1 13 15 29 25 31 29 72 7 79 -9 3 -11 -1 -7 -12 5
-12 3 -15 -6 -11 -6 4 -3 -1 7 -9 19 -15 12 -22 -17 -17 -5 1 -5 -4 -1 -10 5
-8 3 -9 -6 -4 -9 6 -11 4 -5 -5 5 -8 4 -11 -3 -6 -11 7 -11 -12 1 -31 5 -7 4
-13 -2 -13 -5 0 -11 5 -13 12 -3 7 -7 5 -11 -6 -5 -11 -3 -15 5 -10 7 4 8 3 4
-5 -5 -7 -13 -8 -24 -2 -11 6 -20 4 -28 -6 -9 -13 -13 -13 -19 -3 -5 9 -4 11
3 6 7 -4 12 -3 12 2 0 16 -13 22 -25 12 -8 -7 -12 -5 -12 4 0 15 14 16 36 2
11 -7 13 -5 9 6 -5 11 0 15 15 13 33 -2 40 5 20 20 -13 10 -20 10 -25 2 -4 -6
-10 -8 -15 -3 -4 4 0 12 10 17 9 6 15 14 12 19 -9 14 15 23 30 10 8 -7 15 -7
19 -1 4 5 -3 13 -14 16 -16 5 -18 10 -10 20 7 8 7 16 2 19 -6 3 -13 -1 -16
-10 -4 -9 -9 -14 -13 -11 -3 4 0 13 7 22 15 18 42 2 33 -21 -3 -8 -1 -14 5
-14 17 0 22 28 6 40 -16 15 -19 30 -3 30 5 0 7 -5 3 -12 -5 -7 -2 -9 8 -6 11
5 14 0 12 -18 -1 -13 2 -22 7 -19 15 10 49 -14 43 -30 -4 -8 -1 -15 7 -15 7 0
10 3 6 6 -3 4 4 15 16 26 12 11 17 17 11 14 -7 -3 -14 0 -17 7 -3 8 -20 22
-39 31 -18 10 -42 23 -53 29 -321 192 -907 428 -1302 527 l-132 33 31 43 c17
24 38 52 47 62 9 10 36 42 61 72 108 133 263 305 385 428 117 117 160 154 140
122z m435 -31 c0 -5 -4 -9 -8 -9 -5 0 -9 7 -9 15 0 8 4 12 9 9 4 -3 8 -9 8
-15z m-142 -4 c3 -3 -4 -4 -16 -2 -12 2 -24 6 -28 10 -4 3 4 4 16 2 12 -2 25
-7 28 -10z m203 2 c-6 -8 -7 -18 -3 -22 4 -5 1 -5 -6 -1 -10 6 -10 11 -1 22 6
8 14 14 16 14 3 0 0 -6 -6 -13z m-268 -12 c-3 -9 -8 -14 -10 -11 -3 3 -2 9 2
15 9 16 15 13 8 -4z m443 -10 c-1 -8 -5 -17 -8 -21 -5 -4 -4 16 1 34 3 9 9 -1
7 -13z m-363 -10 c-3 -9 -8 -14 -10 -11 -3 3 -2 9 2 15 9 16 15 13 8 -4z m77
0 c-7 -8 -17 -15 -23 -15 -6 0 -2 7 9 15 25 19 30 19 14 0z m84 -4 c-7 -8 -54
-9 -59 -2 -2 4 12 7 30 7 19 0 32 -3 29 -5z m-133 -18 c13 -16 12 -17 -3 -4
-10 7 -18 15 -18 17 0 8 8 3 21 -13z m173 -21 c3 -5 -1 -9 -9 -9 -8 0 -12 4
-9 9 3 4 7 8 9 8 2 0 6 -4 9 -8z m43 -9 c0 -9 -4 -10 -14 -2 -7 6 -13 12 -13
14 0 1 6 2 13 2 8 0 14 -6 14 -14z m283 -13 c0 -5 -2 -10 -4 -10 -3 0 -8 5
-11 10 -3 6 -1 10 4 10 6 0 11 -4 11 -10z m-240 -40 c0 -5 -5 -10 -11 -10 -5
0 -7 5 -4 10 3 6 8 10 11 10 2 0 4 -4 4 -10z m196 -5 c-1 -8 -5 -17 -8 -21 -5
-4 -4 16 1 34 3 9 9 -1 7 -13z m79 6 c-9 -8 -36 -10 -30 -2 2 4 11 8 20 8 8 0
13 -3 10 -6z m-235 -41 c0 -5 -2 -10 -4 -10 -3 0 -8 5 -11 10 -3 6 -1 10 4 10
6 0 11 -4 11 -10z m274 2 c3 -5 -1 -9 -9 -9 -8 0 -12 4 -9 9 3 4 7 8 9 8 2 0
6 -4 9 -8z m-158 -38 c1 -9 0 -13 -4 -10 -3 4 -7 14 -8 22 -1 9 0 13 4 10 3
-4 7 -14 8 -22z m80 11 c-1 -8 -5 -17 -8 -21 -5 -4 -4 16 1 34 3 9 9 -1 7 -13z
m119 -3 c-3 -3 -11 0 -18 7 -9 10 -8 11 6 5 10 -3 15 -9 12 -12z m-141 -30 c3
-5 -1 -9 -9 -9 -8 0 -12 4 -9 9 3 4 7 8 9 8 2 0 6 -4 9 -8z m66 -36 c0 -3 -4
-8 -10 -11 -5 -3 -10 -1 -10 4 0 6 5 11 10 11 6 0 10 -2 10 -4z m135 -6 c3 -5
1 -10 -4 -10 -6 0 -11 5 -11 10 0 6 2 10 4 10 3 0 8 -4 11 -10z m-2160 -732
c2 -2 -25 -62 -60 -133 -166 -338 -349 -757 -371 -850 -4 -16 -10 -34 -14 -40
-6 -9 -16 -42 -21 -70 -1 -5 -10 -32 -21 -60 -11 -27 -18 -59 -15 -71 7 -39
-20 -16 -77 65 -244 347 -348 750 -235 913 90 132 308 226 569 245 41 3 76 6
77 7 5 4 164 -2 168 -6z m3792 -200 c-3 -7 -5 -2 -5 12 0 14 2 19 5 13 2 -7 2
-19 0 -25z m-3756 -35 c13 -16 12 -17 -3 -4 -10 7 -18 15 -18 17 0 8 8 3 21
-13z m3769 13 c0 -3 -4 -8 -10 -11 -5 -3 -10 -1 -10 4 0 6 5 11 10 11 6 0 10
-2 10 -4z m-1943 -51 c0 -8 -4 -12 -9 -9 -5 3 -6 10 -3 15 9 13 12 11 12 -6z
m113 -20 c11 7 43 -25 35 -34 -4 -3 -12 1 -18 10 -12 16 -18 19 -38 19 -5 0
-7 5 -3 12 6 9 9 9 12 0 2 -7 7 -10 12 -7z m-2096 -93 c3 -5 -1 -9 -9 -9 -8 0
-12 4 -9 9 3 4 7 8 9 8 2 0 6 -4 9 -8z m2076 5 c0 -2 -10 -12 -22 -23 l-23
-19 19 23 c18 21 26 27 26 19z m-2072 -72 c-3 -3 -9 2 -12 12 -6 14 -5 15 5 6
7 -7 10 -15 7 -18z m55 -20 c4 -8 3 -16 -1 -19 -4 -3 -9 4 -9 15 -2 23 3 25
10 4z m1967 5 c0 -5 -5 -10 -11 -10 -5 0 -7 5 -4 10 3 6 8 10 11 10 2 0 4 -4
4 -10z m-142 -25 c-3 -3 -9 2 -12 12 -6 14 -5 15 5 6 7 -7 10 -15 7 -18z
m1833 -9 c5 3 9 0 9 -6 0 -15 -23 -7 -26 8 -1 7 0 8 3 2 2 -5 9 -8 14 -4z
m-3627 -4 c3 -5 -1 -9 -9 -9 -8 0 -12 4 -9 9 3 4 7 8 9 8 2 0 6 -4 9 -8z
m-148 -27 c-1 -8 -5 -17 -8 -21 -5 -4 -4 16 1 34 3 9 9 -1 7 -13z m1924 5 c0
-5 -2 -10 -4 -10 -3 0 -8 5 -11 10 -3 6 -1 10 4 10 6 0 11 -4 11 -10z m65 -61
c1 -15 -1 -16 -13 -7 -9 8 -10 14 -3 16 6 2 8 8 5 13 -3 6 -11 5 -20 -2 -10
-8 -14 -8 -14 0 0 6 5 11 10 11 7 0 7 7 0 23 -8 15 -4 13 11 -7 13 -16 24 -37
24 -47z m1809 59 c-5 -8 -1 -9 12 -4 14 5 16 4 7 -5 -13 -13 -37 -3 -28 12 4
5 8 9 11 9 3 0 2 -5 -2 -12z m-3714 -18 c0 -5 -2 -10 -4 -10 -3 0 -8 5 -11 10
-3 6 -1 10 4 10 6 0 11 -4 11 -10z m1074 -8 c3 -5 -1 -9 -9 -9 -8 0 -12 4 -9
9 3 4 7 8 9 8 2 0 6 -4 9 -8z m2698 -21 c15 -18 15 -20 0 -26 -9 -3 -13 -3
-10 1 4 4 3 15 -3 25 -13 24 -8 24 13 0z m-3868 -9 c3 -5 -1 -9 -9 -9 -8 0
-12 4 -9 9 3 4 7 8 9 8 2 0 6 -4 9 -8z m52 -7 c-1 -8 -5 -17 -8 -21 -5 -4 -4
16 1 34 3 9 9 -1 7 -13z m3764 5 c0 -5 -4 -10 -10 -10 -5 0 -10 5 -10 10 0 6
5 10 10 10 6 0 10 -4 10 -10z m-3829 -53 c-10 -9 -11 -8 -5 6 3 10 9 15 12 12
3 -3 0 -11 -7 -18z m1136 1 c-3 -8 -6 -5 -6 6 -1 11 2 17 5 13 3 -3 4 -12 1
-19z m198 12 c3 -6 -1 -7 -9 -4 -18 7 -21 14 -7 14 6 0 13 -4 16 -10z m2535
-1 c0 -4 -9 -7 -19 -6 -11 0 -18 4 -16 7 6 9 35 8 35 -1z m34 -5 c5 -14 4 -15
-9 -4 -17 14 -19 20 -6 20 5 0 12 -7 15 -16z m111 -109 c166 -249 258 -510
251 -715 -2 -64 -8 -95 -24 -127 -35 -68 -108 -130 -207 -178 -100 -47 -168
-68 -295 -88 -87 -14 -320 -23 -320 -13 0 3 36 81 80 172 44 91 80 167 80 169
0 3 14 33 30 67 17 34 28 68 25 76 -2 7 -1 10 5 7 13 -8 103 192 190 425 36
97 45 132 36 141 -8 9 -8 10 1 5 8 -4 21 23 39 84 15 49 29 90 30 90 1 0 37
-52 79 -115z m-4070 95 c3 -5 1 -10 -4 -10 -6 0 -11 5 -11 10 0 6 2 10 4 10 3
0 8 -4 11 -10z m121 -16 c1 -9 0 -13 -4 -10 -3 4 -7 14 -8 22 -1 9 0 13 4 10
3 -4 7 -14 8 -22z m1329 -24 c-8 -12 21 -20 33 -8 7 7 14 3 22 -12 10 -18 14
-19 28 -8 11 9 11 5 -3 -14 -18 -25 -54 -50 -40 -28 3 5 -3 14 -14 19 -14 8
-21 8 -25 -2 -4 -8 -5 -7 -5 3 2 32 -1 41 -13 34 -9 -5 -9 -2 1 9 15 19 1 23
-17 5 -8 -8 -12 -8 -12 -1 0 6 7 14 16 17 11 4 13 11 8 19 -5 7 -1 4 8 -6 10
-11 16 -23 13 -27z m-165 26 c0 -3 -4 -8 -10 -11 -5 -3 -10 -1 -10 4 0 6 5 11
10 11 6 0 10 -2 10 -4z m2520 -6 c0 -5 -4 -10 -10 -10 -5 0 -10 5 -10 10 0 6
5 10 10 10 6 0 10 -4 10 -10z m-3800 -20 c0 -5 -2 -10 -4 -10 -3 0 -8 5 -11
10 -3 6 -1 10 4 10 6 0 11 -4 11 -10z m97 -15 c0 -8 -4 -12 -9 -9 -5 3 -6 10
-3 15 9 13 12 11 12 -6z m1196 2 c4 3 7 1 7 -5 0 -17 -16 -15 -31 6 -12 15
-12 16 2 5 9 -7 19 -10 22 -6z m2544 -9 c-3 -8 -6 -5 -6 6 -1 11 2 17 5 13 3
-3 4 -12 1 -19z m30 0 c-3 -8 -6 -5 -6 6 -1 11 2 17 5 13 3 -3 4 -12 1 -19z
m-50 -3 c0 -8 -4 -12 -9 -9 -5 3 -6 10 -3 15 9 13 12 11 12 -6z m102 12 c-2
-2 -11 -8 -20 -15 -12 -9 -16 -9 -16 1 0 7 9 14 20 14 11 1 18 1 16 0z m-3919
-27 c0 -5 -2 -10 -4 -10 -3 0 -8 5 -11 10 -3 6 -1 10 4 10 6 0 11 -4 11 -10z
m35 0 c3 -5 1 -10 -4 -10 -6 0 -11 5 -11 10 0 6 2 10 4 10 3 0 8 -4 11 -10z
m1385 0 c-8 -5 -19 -10 -25 -10 -5 0 -3 5 5 10 8 5 20 10 25 10 6 0 3 -5 -5
-10z m2511 -7 c13 -16 12 -17 -3 -4 -17 13 -22 21 -14 21 2 0 10 -8 17 -17z
m-144 -15 c-3 -8 -6 -5 -6 6 -1 11 2 17 5 13 3 -3 4 -12 1 -19z m99 -1 c4 -3
-4 -4 -16 -2 -12 2 -25 7 -28 10 -3 3 4 4 16 2 12 -2 24 -6 28 -10z m-2486
-17 c0 -5 -5 -10 -11 -10 -5 0 -7 5 -4 10 3 6 8 10 11 10 2 0 4 -4 4 -10z
m2393 -13 c4 3 7 1 7 -5 0 -19 -15 -14 -36 11 -19 22 -19 22 2 4 11 -9 24 -14
27 -10z m62 -10 c1 -15 -5 -33 -13 -40 -13 -10 -14 -9 -7 3 13 20 13 53 0 63
-6 5 -4 7 5 5 8 -3 15 -16 15 -31z m-118 -22 c0 -8 -4 -12 -9 -9 -5 3 -6 10
-3 15 9 13 12 11 12 -6z m134 -28 c-10 -9 -11 -8 -5 6 3 10 9 15 12 12 3 -3 0
-11 -7 -18z m-51 9 c0 -2 -8 -10 -17 -17 -16 -13 -17 -12 -4 4 13 16 21 21 21
13z m-40 -19 c0 -2 -8 -11 -18 -20 -15 -14 -19 -15 -19 -2 0 8 4 12 8 9 4 -2
10 0 14 6 6 10 15 14 15 7z m60 -1 c0 -2 -8 -10 -17 -17 -16 -13 -17 -12 -4 4
13 16 21 21 21 13z m-3876 -14 c3 -5 -1 -9 -9 -9 -8 0 -12 4 -9 9 3 4 7 8 9 8
2 0 6 -4 9 -8z m3897 -5 c-6 -8 -9 -16 -6 -19 3 -2 -2 -5 -10 -5 -13 0 -13 3
2 19 19 21 31 25 14 5z m-46 -25 c-3 -3 -11 0 -18 7 -9 10 -8 11 6 5 10 -3 15
-9 12 -12z m-3879 -47 c1 -8 -2 -15 -6 -15 -5 0 -8 9 -7 20 1 21 10 18 13 -5z
m40 -11 c1 -9 -1 -13 -4 -9 -4 4 -7 10 -7 13 0 4 -4 14 -9 22 -7 12 -6 13 4 3
8 -7 15 -20 16 -29z m3881 19 c0 -9 -4 -10 -14 -2 -7 6 -13 12 -13 14 0 1 6 2
13 2 8 0 14 -6 14 -14z m-157 -7 c0 -2 -7 -7 -16 -10 -8 -3 -12 -2 -9 4 6 10
25 14 25 6z m-3799 -23 c13 -16 12 -17 -3 -4 -10 7 -18 15 -18 17 0 8 8 3 21
-13z m116 4 c0 -8 -6 -14 -14 -14 -9 0 -10 4 -2 14 6 7 12 13 14 13 1 0 2 -6
2 -13z m-136 -24 c13 -16 12 -17 -3 -4 -10 7 -18 15 -18 17 0 8 8 3 21 -13z
m-18 -16 c3 -8 -1 -14 -8 -14 -7 0 -11 6 -8 14 3 7 6 13 8 13 2 0 5 -6 8 -13z
m138 -24 c13 -16 12 -17 -3 -4 -10 7 -18 15 -18 17 0 8 8 3 21 -13z m3710 -16
c-10 -9 -11 -8 -5 6 3 10 9 15 12 12 3 -3 0 -11 -7 -18z m-3834 -22 c0 -8 -5
-11 -10 -8 -6 4 -8 0 -5 -9 4 -8 0 -15 -8 -15 -13 0 -11 9 9 35 12 15 14 15
14 -3z m2374 -18 c-10 -9 -11 -8 -5 6 3 10 9 15 12 12 3 -3 0 -11 -7 -18z
m-2307 -5 c-6 -4 -10 -19 -9 -34 1 -15 -2 -25 -6 -23 -4 3 -6 13 -4 23 1 9 -1
22 -6 27 -5 7 0 11 14 12 12 1 17 -1 11 -5z m3736 4 c0 -3 -4 -8 -10 -11 -5
-3 -10 -1 -10 4 0 6 5 11 10 11 6 0 10 -2 10 -4z m-3862 -31 c-3 -3 -9 2 -12
12 -6 14 -5 15 5 6 7 -7 10 -15 7 -18z m2515 -10 c-3 -9 -8 -14 -10 -11 -3 3
-2 9 2 15 9 16 15 13 8 -4z m-116 -15 c2 -19 -8 -26 -20 -14 -7 7 2 34 12 34
4 0 7 -9 8 -20z m-2397 7 c0 -2 -10 -12 -22 -23 l-23 -19 19 23 c18 21 26 27
26 19z m46 -19 c3 -4 -1 -5 -10 -4 -8 1 -18 5 -22 8 -3 4 1 5 10 4 8 -1 18 -5
22 -8z m2499 2 c3 -6 -1 -7 -9 -4 -18 7 -21 14 -7 14 6 0 13 -4 16 -10z m180
0 c3 -6 -1 -7 -9 -4 -18 7 -21 14 -7 14 6 0 13 -4 16 -10z m-181 -41 c-3 -5
-1 -9 5 -9 5 0 11 6 14 13 2 6 3 2 1 -10 -4 -19 -2 -20 20 -10 13 7 22 15 20
19 -3 5 0 8 5 8 19 0 12 -22 -8 -27 -11 -3 -18 -10 -17 -16 2 -7 1 -8 -2 -3
-2 4 -8 2 -12 -5 -17 -27 -36 -18 -35 18 2 26 -1 33 -12 29 -8 -3 -11 -1 -8 4
3 6 1 10 -4 10 -6 0 -11 5 -11 10 0 6 11 3 25 -6 14 -9 22 -20 19 -25z m51 32
c3 -5 2 -12 -3 -15 -5 -3 -9 1 -9 9 0 17 3 19 12 6z m-145 -26 c7 -9 8 -15 2
-15 -5 0 -12 7 -16 15 -3 8 -4 15 -2 15 2 0 9 -7 16 -15z m-2433 -10 c5 -4 2
-5 -6 0 -11 6 -13 4 -8 -7 4 -12 1 -14 -16 -10 -12 3 -16 7 -9 10 7 2 10 7 7
12 -7 11 22 7 32 -5z m2660 -7 c-3 -8 -6 -5 -6 6 -1 11 2 17 5 13 3 -3 4 -12
1 -19z m1140 3 c0 -11 -5 -18 -9 -15 -4 3 -5 11 -1 19 7 21 12 19 10 -4z
m-3702 -22 c-1 -10 -3 -20 -6 -21 -2 -2 -3 -1 -2 1 1 2 -2 11 -7 21 -6 12 -5
17 4 17 7 0 12 -8 11 -18z m3745 11 c0 -5 -5 -10 -11 -10 -5 0 -7 5 -4 10 3 6
8 10 11 10 2 0 4 -4 4 -10z m-3824 -26 c1 -9 0 -13 -4 -10 -3 4 -7 14 -8 22
-1 9 0 13 4 10 3 -4 7 -14 8 -22z m3701 -9 c0 -8 -4 -12 -9 -9 -5 3 -6 10 -3
15 9 13 12 11 12 -6z m-3668 -9 c9 -10 8 -15 -3 -19 -9 -4 -18 -1 -22 5 -5 7
-2 8 6 3 10 -6 12 -4 7 8 -8 21 -3 22 12 3z m2651 -1 c-7 -9 -15 -13 -19 -10
-3 3 1 10 9 15 21 14 24 12 10 -5z m1097 -7 c2 -17 0 -19 -7 -8 -5 8 -6 18 -4
22 8 12 10 10 11 -14z m-3847 -8 c8 -5 11 -10 5 -10 -5 0 -17 5 -25 10 -8 5
-10 10 -5 10 6 0 17 -5 25 -10z m1885 -6 c19 -14 19 -14 -5 -11 -13 2 -26 9
-28 15 -5 16 9 14 33 -4z m2040 6 c3 -5 1 -10 -4 -10 -6 0 -11 5 -11 10 0 6 2
10 4 10 3 0 8 -4 11 -10z m-3880 -9 c3 -5 0 -13 -6 -17 -7 -4 -9 -3 -5 4 3 5
0 13 -6 15 -9 4 -10 6 -1 6 6 1 14 -3 18 -8z m3722 -16 c0 -8 -4 -12 -9 -9 -5
3 -6 10 -3 15 9 13 12 11 12 -6z m-3691 -17 c4 -6 3 -8 -4 -4 -5 3 -13 0 -15
-6 -3 -8 -6 -6 -6 5 -1 19 14 23 25 5z m2638 -4 c3 -7 -3 -18 -12 -25 -14 -11
-15 -11 -5 1 10 10 9 16 -4 25 -14 11 -14 12 0 12 9 0 18 -6 21 -13z m1052
-16 c3 -4 -1 -5 -10 -4 -8 1 -18 5 -22 8 -3 4 1 5 10 4 8 -1 18 -5 22 -8z m59
2 c3 -5 1 -10 -4 -10 -6 0 -11 5 -11 10 0 6 2 10 4 10 3 0 8 -4 11 -10z m61
-5 c-1 -8 -5 -17 -8 -21 -5 -4 -4 16 1 34 3 9 9 -1 7 -13z m-3803 -25 c5 -4 3
-11 -5 -15 -7 -5 -10 -4 -5 0 4 5 -5 15 -20 22 -26 12 -26 12 -3 7 14 -4 29
-10 33 -14z m3652 -30 c3 -6 -1 -7 -9 -4 -18 7 -21 14 -7 14 6 0 13 -4 16 -10z
m-1845 -14 c0 -3 -4 -8 -10 -11 -5 -3 -10 -1 -10 4 0 6 5 11 10 11 6 0 10 -2
10 -4z m-53 -38 c-3 -8 -6 -5 -6 6 -1 11 2 17 5 13 3 -3 4 -12 1 -19z m28 3
c3 -5 2 -12 -3 -15 -5 -3 -9 1 -9 9 0 17 3 19 12 6z m-20 -39 c-3 -3 -11 0
-18 7 -9 10 -8 11 6 5 10 -3 15 -9 12 -12z m-1 -31 c-8 -8 -44 -8 -44 1 0 4
11 7 25 6 13 -1 22 -4 19 -7z m1903 -6 c0 -8 -4 -12 -9 -9 -5 3 -6 10 -3 15 9
13 12 11 12 -6z m-2033 -10 c-5 -12 -34 -17 -34 -5 0 11 9 17 24 17 8 0 12 -6
10 -12z m-19 -45 c3 -6 -1 -7 -9 -4 -18 7 -21 14 -7 14 6 0 13 -4 16 -10z
m125 -15 c0 -2 -6 -8 -13 -14 -10 -8 -14 -7 -14 2 0 8 6 14 14 14 7 0 13 -1
13 -2z m-1895 -95 c3 -5 1 -10 -4 -10 -6 0 -11 5 -11 10 0 6 2 10 4 10 3 0 8
-4 11 -10z m1435 -744 c0 -2 -8 -10 -17 -17 -16 -13 -17 -12 -4 4 13 16 21 21
21 13z m-10 -70 c0 -2 -8 -10 -17 -17 -16 -13 -17 -12 -4 4 13 16 21 21 21 13z
m-40 -135 c69 -32 147 -69 173 -80 27 -12 96 -45 155 -73 160 -75 199 -92 292
-128 47 -18 94 -36 105 -41 11 -5 49 -18 85 -29 36 -12 74 -25 85 -29 31 -13
92 -32 114 -36 56 -11 51 -20 -57 -92 -240 -160 -492 -254 -687 -256 -128 -1
-166 12 -241 87 -34 35 -75 88 -91 121 -48 96 -69 164 -98 320 -3 17 -9 97
-12 179 l-6 149 29 -16 c16 -9 85 -43 154 -76z m285 39 c-3 -5 -12 -10 -18
-10 -7 0 -6 4 3 10 19 12 23 12 15 0z m55 0 c0 -5 -5 -10 -11 -10 -5 0 -7 5
-4 10 3 6 8 10 11 10 2 0 4 -4 4 -10z m56 -35 c-1 -8 -5 -17 -8 -21 -5 -4 -4
16 1 34 3 9 9 -1 7 -13z m60 -41 c1 -9 0 -13 -4 -10 -3 4 -7 14 -8 22 -1 9 0
13 4 10 3 -4 7 -14 8 -22z m44 -4 c0 -5 -2 -10 -4 -10 -3 0 -8 5 -11 10 -3 6
-1 10 4 10 6 0 11 -4 11 -10z m-80 -16 c0 -8 -19 -13 -24 -6 -3 5 1 9 9 9 8 0
15 -2 15 -3z m120 -4 c0 -5 -5 -10 -11 -10 -5 0 -7 5 -4 10 3 6 8 10 11 10 2
0 4 -4 4 -10z m-204 -25 c-1 -8 -5 -17 -8 -21 -5 -4 -4 16 1 34 3 9 9 -1 7
-13z m145 -32 c13 -16 12 -17 -3 -4 -17 13 -22 21 -14 21 2 0 10 -8 17 -17z
m-66 -22 c3 -5 2 -12 -3 -15 -5 -3 -9 1 -9 9 0 17 3 19 12 6z m226 -18 c13
-16 12 -17 -3 -4 -17 13 -22 21 -14 21 2 0 10 -8 17 -17z m160 -6 c-6 -8 -7
-18 -3 -22 4 -5 1 -5 -6 -1 -10 6 -10 11 -1 22 6 8 14 14 16 14 3 0 0 -6 -6
-13z m36 -10 c0 -8 -6 -14 -14 -14 -9 0 -10 4 -2 14 6 7 12 13 14 13 1 0 2 -6
2 -13z m-73 -9 c-3 -4 -9 -8 -15 -8 -5 0 -9 4 -9 8 0 5 7 9 15 9 8 0 12 -4 9
-9z m-260 -16 c3 -5 -1 -9 -9 -9 -8 0 -12 4 -9 9 3 4 7 8 9 8 2 0 6 -4 9 -8z
m222 -4 c3 -4 -1 -5 -10 -4 -8 1 -18 5 -22 8 -3 4 1 5 10 4 8 -1 18 -5 22 -8z
m208 -4 c3 -9 2 -12 -5 -9 -5 4 -18 1 -27 -6 -13 -11 -12 -8 2 9 23 26 22 26
30 6z m-57 -9 c0 -8 -10 -23 -21 -32 -21 -18 -21 -18 -2 5 11 12 16 22 12 22
-4 0 -4 5 -1 10 9 14 12 13 12 -5z m-27 0 c0 -1 -10 -10 -22 -21 -14 -12 -18
-13 -10 -3 6 9 10 18 7 21 -3 2 2 5 10 5 8 0 15 -1 15 -2z m141 -12 c13 -17
13 -17 -6 -3 -11 8 -22 16 -24 17 -2 2 0 3 6 3 6 0 17 -8 24 -17z m-254 -8 c0
-8 -4 -15 -9 -15 -10 0 -11 14 -1 23 9 10 10 9 10 -8z m37 -15 c-6 -6 -10 -3
-10 10 0 13 4 16 10 10 7 -7 7 -13 0 -20z m-144 14 c0 -8 -19 -13 -24 -6 -3 5
1 9 9 9 8 0 15 -2 15 -3z m327 -14 c-1 -11 -5 -20 -9 -20 -10 0 -10 4 -2 24 8
22 13 20 11 -4z m-79 -20 c-7 -10 -14 -17 -17 -15 -4 4 18 35 25 35 2 0 -1 -9
-8 -20z m-61 -4 c0 -15 -21 -16 -34 -1 -4 4 -3 5 4 1 6 -3 14 -2 18 4 8 14 12
13 12 -4z m-71 -8 c3 -4 -1 -5 -10 -4 -8 1 -18 5 -22 8 -3 4 1 5 10 4 8 -1 18
-5 22 -8z m145 -11 c-10 -9 -11 -8 -5 6 3 10 9 15 12 12 3 -3 0 -11 -7 -18z
m104 14 c-9 -8 -36 -10 -30 -2 2 4 11 8 20 8 8 0 13 -3 10 -6z m159 -6 c11 -8
15 -15 9 -15 -7 0 -15 5 -18 10 -4 6 -11 8 -16 5 -5 -4 -9 -1 -9 4 0 15 11 13
34 -4z m51 -13 c-3 -3 -11 0 -18 7 -9 10 -8 11 6 5 10 -3 15 -9 12 -12z m-435
4 c0 -2 -8 -10 -17 -17 -16 -13 -17 -12 -4 4 13 16 21 21 21 13z m47 -19 c0
-7 -9 -14 -20 -14 -19 -2 -19 -2 -1 12 11 8 19 15 20 15 0 0 1 -6 1 -13z m82
-2 c22 0 36 -5 38 -15 3 -10 2 -11 -4 -4 -4 6 -22 10 -40 8 -20 -1 -37 4 -45
14 -11 13 -11 14 2 6 8 -5 30 -9 49 -9z m97 1 c13 2 24 0 24 -4 0 -14 -53 -8
-56 6 -1 7 0 8 2 3 3 -5 16 -7 30 -5z m139 -15 c3 -5 0 -13 -6 -17 -7 -4 -9
-3 -5 4 3 6 -2 13 -11 15 -16 4 -16 5 -1 6 9 0 19 -3 23 -8z m-59 -26 c-1 -8
-5 -17 -8 -21 -5 -4 -4 16 1 34 3 9 9 -1 7 -13z m-119 -14 c0 -11 -5 -18 -9
-15 -4 3 -5 11 -1 19 7 21 12 19 10 -4z m93 -6 c0 -1 -9 -5 -19 -8 -13 -3 -18
-1 -14 9 4 10 33 10 33 -1z m-59 -12 c13 -16 12 -17 -3 -4 -17 13 -22 21 -14
21 2 0 10 -8 17 -17z m69 -9 c0 -8 -19 -13 -24 -6 -3 5 1 9 9 9 8 0 15 -2 15
-3z"/>
<path d="M3284 3585 c4 -25 15 -29 34 -12 10 10 22 14 27 10 4 -5 5 -2 1 5 -6
10 -11 10 -21 2 -9 -8 -15 -8 -20 0 -9 15 -24 12 -21 -5z"/>
<path d="M3415 3580 c-2 -3 5 -6 15 -7 11 -1 22 2 24 5 3 4 -4 8 -15 8 -11 0
-22 -3 -24 -6z"/>
<path d="M3391 3564 c0 -11 3 -14 6 -6 3 7 2 16 -1 19 -3 4 -6 -2 -5 -13z"/>
<path d="M3410 3537 c0 -2 6 -10 14 -16 11 -9 16 -9 22 1 4 7 4 10 -1 6 -4 -4
-14 -3 -22 3 -7 6 -13 9 -13 6z"/>
<path d="M3270 3520 c0 -5 5 -10 10 -10 6 0 10 5 10 10 0 6 -4 10 -10 10 -5 0
-10 -4 -10 -10z"/>
<path d="M3389 3503 c-13 -16 -12 -17 4 -4 16 13 21 21 13 21 -2 0 -10 -8 -17
-17z"/>
<path d="M2480 3500 c-9 -6 -10 -10 -3 -10 6 0 15 5 18 10 8 12 4 12 -15 0z"/>
<path d="M3350 3489 c0 -5 5 -7 10 -4 6 3 10 8 10 11 0 2 -4 4 -10 4 -5 0 -10
-5 -10 -11z"/>
<path d="M3334 3455 c-4 -8 -9 -13 -13 -11 -4 3 -8 -5 -8 -17 -2 -19 0 -18 16
6 10 15 21 24 26 20 4 -5 5 -2 1 5 -9 16 -15 15 -22 -3z"/>
<path d="M3256 3444 c-20 -19 -20 -25 -2 -18 8 3 17 12 20 20 7 18 1 18 -18
-2z"/>
<path d="M2445 3440 c-2 -3 7 -6 21 -6 13 0 24 3 24 7 0 9 -40 8 -45 -1z"/>
<path d="M2530 3421 c0 -6 4 -13 10 -16 6 -3 7 1 4 9 -7 18 -14 21 -14 7z"/>
<path d="M3336 3407 c3 -10 9 -15 12 -12 3 3 0 11 -7 18 -10 9 -11 8 -5 -6z"/>
<path d="M2495 3400 c3 -5 8 -10 11 -10 2 0 4 5 4 10 0 6 -5 10 -11 10 -5 0
-7 -4 -4 -10z"/>
<path d="M2483 3382 c15 -10 24 -22 20 -25 -3 -4 -2 -7 4 -7 24 0 21 15 -7 32
-39 23 -53 23 -17 0z"/>
<path d="M3307 3387 c-3 -8 1 -14 8 -14 7 0 11 6 8 14 -3 7 -6 13 -8 13 -2 0
-5 -6 -8 -13z"/>
<path d="M2378 3358 c7 -8 9 -23 6 -33 -5 -13 -2 -16 17 -14 13 2 31 -1 39 -6
13 -8 13 -7 1 8 -7 9 -18 14 -25 10 -6 -4 -5 1 3 10 9 11 10 17 2 18 -21 3
-26 4 -41 14 -13 7 -13 6 -2 -7z"/>
<path d="M2560 3360 c-8 -5 -12 -12 -9 -15 4 -3 12 1 19 10 14 17 11 19 -10 5z"/>
<path d="M3267 3347 c-3 -8 1 -14 8 -14 7 0 11 6 8 14 -3 7 -6 13 -8 13 -2 0
-5 -6 -8 -13z"/>
<path d="M2574 3338 c-4 -7 -3 -8 4 -4 7 4 12 1 12 -8 0 -9 5 -16 10 -16 7 0
7 6 0 20 -12 23 -16 24 -26 8z"/>
<path d="M2676 3335 c-3 -9 -10 -13 -16 -10 -5 3 -10 1 -10 -4 0 -6 4 -11 9
-11 12 0 35 29 29 36 -3 3 -8 -2 -12 -11z"/>
<path d="M2476 3275 c4 -8 10 -12 15 -9 11 6 2 24 -11 24 -5 0 -7 -7 -4 -15z"/>
<path d="M2670 3280 c-9 -6 -10 -10 -3 -10 6 0 15 5 18 10 8 12 4 12 -15 0z"/>
<path d="M2706 3277 c3 -10 9 -15 12 -12 3 3 0 11 -7 18 -10 9 -11 8 -5 -6z"/>
<path d="M3315 2770 c-3 -6 1 -7 9 -4 18 7 21 14 7 14 -6 0 -13 -4 -16 -10z"/>
<path d="M3350 2743 c7 -3 8 -9 1 -17 -8 -9 -7 -13 3 -13 17 0 14 30 -3 33 -7
2 -7 0 -1 -3z"/>
<path d="M2730 2726 c0 -2 7 -7 16 -10 8 -3 12 -2 9 4 -6 10 -25 14 -25 6z"/>
<path d="M2726 2702 c-3 -5 1 -9 9 -9 8 0 12 4 9 9 -3 4 -7 8 -9 8 -2 0 -6 -4
-9 -8z"/>
<path d="M3606 2701 c-3 -4 3 -16 14 -26 11 -10 20 -16 21 -14 0 2 2 12 4 22
3 14 -1 16 -17 11 -14 -4 -18 -2 -14 5 4 6 5 11 2 11 -3 0 -7 -4 -10 -9z"/>
<path d="M3375 2691 c-3 -5 -2 -12 3 -15 5 -3 9 1 9 9 0 17 -3 19 -12 6z"/>
<path d="M2718 2673 c7 -3 16 -2 19 1 4 3 -2 6 -13 5 -11 0 -14 -3 -6 -6z"/>
<path d="M3450 2661 c0 -6 4 -13 10 -16 6 -3 7 1 4 9 -7 18 -14 21 -14 7z"/>
<path d="M2708 2653 c7 -3 16 -2 19 1 4 3 -2 6 -13 5 -11 0 -14 -3 -6 -6z"/>
<path d="M3534 2648 c3 -17 28 -17 34 0 2 6 -1 12 -8 12 -6 0 -8 -4 -5 -10 3
-5 2 -10 -4 -10 -5 0 -12 5 -14 10 -3 6 -4 5 -3 -2z"/>
<path d="M2685 2622 c-14 -10 -17 -32 -5 -32 6 0 10 7 10 16 0 9 5 12 12 8 7
-4 8 -3 4 4 -8 14 -8 14 -21 4z"/>
<path d="M2745 2571 c1 -9 -2 -22 -8 -28 -14 -18 7 -17 22 1 9 11 9 15 -1 19
-10 4 -10 6 0 6 17 1 15 18 -2 18 -7 0 -13 -7 -11 -16z"/>
<path d="M3535 2580 c3 -5 8 -10 11 -10 2 0 4 5 4 10 0 6 -5 10 -11 10 -5 0
-7 -4 -4 -10z"/>
<path d="M2593 2565 c0 -8 3 -13 5 -10 3 3 12 -1 21 -7 10 -8 9 -4 -3 10 -23
26 -23 26 -23 7z"/>
<path d="M2657 2559 c7 -7 15 -10 18 -7 3 3 -2 9 -12 12 -14 6 -15 5 -6 -5z"/>
<path d="M3595 2560 c3 -5 8 -10 11 -10 2 0 4 5 4 10 0 6 -5 10 -11 10 -5 0
-7 -4 -4 -10z"/>
<path d="M2586 2519 c4 -8 30 -6 38 2 3 3 -5 5 -19 5 -13 0 -22 -3 -19 -7z"/>
<path d="M2650 2510 c0 -5 5 -10 11 -10 5 0 7 5 4 10 -3 6 -8 10 -11 10 -2 0
-4 -4 -4 -10z"/>
<path d="M2726 2483 c-4 -5 -13 -8 -19 -8 -7 0 -13 -10 -13 -22 -2 -31 8 -29
29 7 17 29 18 38 3 23z"/>
<path d="M2534 2440 c0 -13 4 -16 10 -10 7 7 7 13 0 20 -6 6 -10 3 -10 -10z"/>
<path d="M2625 3240 c-4 -6 -12 -8 -18 -4 -7 3 -1 -3 13 -14 13 -11 29 -18 34
-15 5 3 2 11 -7 18 -9 7 -14 15 -10 18 3 4 4 7 0 7 -3 0 -9 -5 -12 -10z"/>
<path d="M3516 2727 c3 -10 9 -15 12 -12 3 3 0 11 -7 18 -10 9 -11 8 -5 -6z"/>
<path d="M1724 5268 c1 -24 3 -25 17 -12 9 8 19 11 22 7 4 -3 7 -1 7 6 0 8 -8
11 -20 8 -10 -3 -21 0 -23 7 -3 6 -4 -1 -3 -16z"/>
<path d="M1784 5272 c6 -17 3 -20 -13 -17 -11 2 -25 -3 -32 -11 -14 -17 -30
-18 -28 -1 4 35 0 37 -78 31 -43 -4 -86 -6 -95 -6 -20 1 -24 -13 -6 -24 7 -5
8 -3 3 6 -6 9 -4 11 4 6 7 -5 10 -14 7 -21 -2 -7 1 -18 7 -24 6 -6 8 -11 4
-11 -3 0 -18 17 -32 37 -14 21 -25 33 -25 27 0 -5 -11 -11 -25 -12 -14 -1 -37
-2 -51 -3 -17 -1 -23 -6 -20 -15 3 -8 1 -14 -4 -14 -6 0 -10 5 -10 11 0 6 -9
8 -21 4 -12 -4 -27 -8 -33 -9 -20 -3 -36 -17 -31 -27 4 -5 2 -9 -4 -9 -5 0
-12 6 -14 13 -4 8 -8 8 -14 2 -4 -5 -19 -12 -33 -13 -25 -4 -54 -22 -34 -22 5
0 10 -8 11 -18 1 -10 -5 -19 -13 -19 -8 0 -13 6 -10 13 3 8 1 16 -4 19 -4 3
-6 -7 -4 -22 3 -16 5 -36 5 -47 0 -18 0 -18 15 0 14 18 15 18 9 -2 -4 -15 0
-24 11 -28 21 -8 37 2 30 19 -3 9 2 13 15 12 26 -2 21 -39 -6 -43 -11 -2 -21
-8 -23 -13 -2 -6 -8 -11 -13 -11 -6 0 -8 4 -5 8 2 4 -4 13 -14 20 -15 9 -19 8
-24 -4 -8 -21 -8 -24 5 -24 5 0 7 5 4 10 -3 6 -2 10 3 10 15 0 22 -28 9 -33
-7 -2 -20 0 -30 5 -22 11 -37 2 -36 -20 1 -15 2 -15 6 1 5 20 23 23 23 3 0 -7
-10 -21 -22 -30 -23 -17 -23 -17 -1 -6 12 6 27 18 32 28 5 9 12 15 16 13 11
-6 65 21 65 33 0 6 5 4 10 -4 7 -11 10 -11 10 -2 0 7 5 10 12 6 7 -5 8 -3 3 6
-6 10 -4 12 8 7 9 -3 19 -2 22 4 4 5 10 7 15 4 5 -3 11 -1 14 4 4 5 14 8 24 7
9 -2 34 3 55 10 20 7 37 11 37 7 0 -3 6 -1 13 4 6 5 29 9 50 8 20 0 37 3 37 6
0 3 12 4 26 1 16 -3 30 1 35 9 7 12 9 11 9 -1 0 -13 1 -13 10 0 5 8 10 10 10
4 0 -6 7 -11 15 -11 21 0 19 10 -5 25 -12 7 -20 8 -20 2 0 -5 -3 -9 -7 -8 -5
1 -19 -2 -32 -6 -25 -9 -51 6 -32 18 6 4 11 2 11 -4 0 -15 25 -7 26 8 3 25 5
27 14 12 7 -11 12 -12 21 -3 6 6 19 9 28 6 14 -4 14 -3 1 6 -8 6 -10 11 -4 11
5 0 16 -6 23 -12 11 -11 12 -10 6 1 -5 10 -4 12 4 7 6 -4 9 -12 6 -17 -4 -5
-1 -9 4 -9 13 0 14 12 4 26 -5 5 0 1 10 -9 9 -11 17 -16 17 -12 0 4 6 4 13 -1
7 -5 0 2 -16 16 -19 17 -26 31 -22 43 7 17 25 14 25 -4 0 -6 -4 -7 -10 -4 -5
3 -10 1 -10 -4 0 -15 15 -14 29 3 7 8 8 16 2 18 -5 1 -2 10 7 18 14 13 15 12
9 -3 -3 -9 -2 -19 3 -22 9 -5 11 0 10 20 -1 3 6 13 14 21 12 11 20 12 36 4 15
-8 20 -8 20 2 0 8 3 9 8 3 10 -14 32 -17 32 -5 0 6 8 10 18 10 13 0 14 -2 3
-9 -7 -5 -9 -11 -5 -13 5 -3 4 -3 -3 -2 -13 3 -25 -21 -16 -30 4 -3 13 -6 22
-6 13 0 13 2 3 9 -10 6 -8 10 8 14 12 3 19 10 16 16 -4 5 -1 13 5 17 7 4 9 3
6 -3 -4 -6 1 -17 10 -24 15 -12 16 -12 11 3 -5 11 -2 15 10 14 9 -2 18 -8 20
-15 3 -8 9 -6 19 6 13 17 13 16 3 -5 -6 -12 -16 -20 -22 -16 -6 4 -9 1 -6 -7
3 -8 9 -14 14 -14 5 0 15 -4 22 -8 6 -5 12 -4 12 2 0 5 -6 11 -12 14 -10 3 -8
9 5 24 28 32 41 29 -139 36 -56 2 -107 8 -114 12 -9 5 -10 2 -6 -13z m-138
-15 c10 -10 26 -9 20 1 -3 5 5 8 17 7 14 -1 21 -8 19 -18 -1 -8 2 -18 8 -22 7
-4 7 -12 0 -26 -6 -11 -16 -17 -21 -13 -6 3 -19 -2 -29 -11 -12 -11 -20 -13
-25 -5 -5 8 -11 8 -21 -1 -7 -6 -11 -16 -7 -23 4 -6 1 -6 -9 2 -12 10 -17 10
-27 -1 -6 -8 -7 -17 -3 -21 4 -4 3 -7 -3 -6 -5 1 -12 2 -15 0 -3 -1 -15 -3
-26 -6 -18 -3 -22 1 -20 20 0 13 5 22 9 19 5 -3 6 -11 4 -17 -3 -7 1 -13 8
-13 10 0 11 5 4 18 -6 11 -5 20 1 24 9 6 14 -8 11 -28 -1 -5 3 -6 8 -2 6 3 7
13 4 22 -5 13 -2 15 11 10 11 -4 15 -3 11 4 -4 6 -13 8 -20 5 -15 -5 -38 17
-28 27 3 4 1 7 -6 7 -6 0 -11 -7 -9 -16 2 -10 -2 -19 -9 -21 -7 -2 -10 3 -8
14 2 10 4 18 5 18 1 0 3 8 5 19 3 14 1 16 -8 7 -15 -15 -27 -14 -21 3 6 15 28
16 31 3 1 -5 14 -18 28 -29 27 -21 43 -19 29 4 -15 23 -11 46 6 43 9 -2 23 0
30 5 14 9 36 7 46 -3z m-178 -24 c-2 -12 3 -18 15 -17 12 1 15 -2 9 -10 -9
-10 -9 -25 -1 -51 5 -16 -12 -56 -21 -50 -4 3 -23 -1 -41 -8 -19 -8 -41 -13
-49 -12 -8 1 -21 -3 -27 -8 -7 -5 -13 -6 -13 -2 0 4 -6 2 -13 -4 -8 -6 -17 -8
-20 -4 -14 13 -6 20 17 18 18 -2 23 1 19 11 -6 16 17 15 29 -1 5 -6 8 -6 8 1
0 6 10 10 23 9 12 -1 31 3 42 8 11 6 24 10 28 9 5 -1 6 2 2 8 -3 5 -1 10 6 10
7 0 9 3 6 6 -4 4 -13 1 -21 -5 -12 -10 -15 -9 -13 8 1 12 6 20 12 17 7 -2 12
2 12 10 0 8 -6 13 -13 10 -7 -3 -18 2 -24 9 -11 13 -16 12 -40 -5 -31 -22 -50
-26 -50 -9 0 5 4 8 9 5 5 -3 14 1 20 8 10 11 9 14 -3 12 -9 -1 -19 -5 -22 -9
-4 -4 -14 -1 -23 5 -13 10 -14 10 -3 -2 16 -19 15 -31 -3 -24 -8 4 -17 -1 -21
-10 -3 -9 -10 -13 -15 -10 -5 3 -6 11 -3 17 4 7 3 8 -2 4 -5 -5 -9 -14 -9 -19
0 -23 -20 -17 -21 6 -2 20 3 23 30 22 21 -1 31 4 31 14 1 8 7 14 13 12 7 -1
21 2 31 7 12 7 22 6 29 -1 11 -11 35 -2 28 11 -3 4 1 8 8 8 8 0 12 -6 9 -13
-2 -6 2 -15 9 -20 7 -4 10 -4 6 1 -7 7 8 45 18 45 3 0 4 -8 2 -17z m-30 -64
c-10 -7 -10 -9 2 -10 11 0 11 -2 2 -6 -10 -4 -10 -8 -1 -19 6 -8 8 -15 3 -15
-66 -9 -80 -4 -75 24 0 4 -4 6 -10 5 -6 -2 -14 4 -16 12 -4 12 -3 12 5 2 5 -8
12 -13 16 -13 19 3 26 0 24 -11 -2 -7 7 -13 20 -14 18 -1 20 1 11 12 -9 11 -8
14 0 14 7 0 9 5 5 11 -5 8 -9 8 -14 -1 -4 -7 -13 -9 -19 -6 -6 4 -9 12 -5 17
3 5 9 7 14 4 4 -3 11 2 14 11 5 13 9 14 22 4 12 -11 12 -15 2 -21z m-190 -7
c2 -7 -3 -12 -10 -12 -8 0 -15 7 -15 15 0 18 19 15 25 -3z m96 -23 c11 -18 14
-29 8 -25 -6 3 -15 -1 -20 -10 -7 -13 -13 -14 -29 -5 -11 5 -23 7 -27 4 -3 -3
-6 -1 -6 7 0 10 -3 10 -15 0 -11 -9 -19 -10 -27 -2 -14 14 0 35 19 28 9 -4 21
-2 27 3 11 9 17 11 37 11 5 0 7 5 4 10 -3 6 -2 10 2 10 5 0 17 -14 27 -31z
m-94 -59 c0 -5 -4 -10 -9 -10 -6 0 -13 5 -16 10 -3 6 1 10 9 10 9 0 16 -4 16
-10z"/>
<path d="M1597 5248 c-9 -5 -17 -5 -17 -1 0 4 -4 1 -10 -7 -5 -9 -5 -19 2 -27
6 -8 8 -16 5 -20 -9 -9 13 -34 24 -27 5 3 0 19 -11 35 -22 29 -18 37 10 19 8
-5 11 -10 5 -10 -5 0 1 -9 15 -20 25 -19 25 -19 47 2 17 16 23 18 23 7 0 -12
2 -12 10 1 5 9 5 19 -1 27 -6 7 -7 18 -3 25 5 8 -3 6 -18 -4 -18 -12 -28 -14
-30 -6 -5 15 -30 18 -51 6z m38 -9 c-8 -11 22 -18 32 -8 6 6 15 3 24 -8 7 -10
9 -15 4 -10 -4 4 -19 -3 -31 -14 -21 -20 -24 -20 -30 -6 -3 9 -11 14 -17 10
-6 -3 -7 -1 -3 6 4 6 0 14 -9 17 -11 5 -13 9 -5 14 14 9 40 9 35 -1z"/>
<path d="M1627 5222 c12 -11 19 -23 15 -28 -4 -5 3 0 16 10 12 11 22 21 22 24
0 2 -6 0 -13 -6 -10 -9 -20 -7 -38 4 l-24 16 22 -20z"/>
<path d="M1453 5205 c0 -8 4 -12 9 -9 5 3 6 10 3 15 -9 13 -12 11 -12 -6z"/>
<path d="M1311 5131 c-8 -5 -21 -7 -30 -4 -13 4 -13 3 -2 -5 8 -6 21 -8 29 -4
11 4 13 2 7 -9 -8 -12 -6 -12 8 0 9 7 14 17 11 22 -6 11 -6 11 -23 0z"/>
<path d="M1803 5225 c-9 -19 -21 -35 -25 -35 -5 0 -6 6 -2 13 5 8 2 7 -9 -2
-17 -13 -16 -15 4 -37 23 -24 20 -45 -3 -27 -15 11 -38 11 -38 1 0 -5 0 -13 0
-20 0 -6 7 -3 15 8 9 11 13 13 10 4 -4 -11 3 -16 25 -16 24 -1 30 2 25 13 -3
9 0 23 7 32 12 15 11 15 -6 1 -16 -12 -18 -12 -11 -1 6 10 4 12 -5 6 -9 -5
-11 -4 -6 4 4 6 12 8 18 5 6 -4 8 2 3 17 -4 17 -3 20 3 10 7 -9 12 -10 16 -2
4 6 2 11 -3 11 -6 0 -11 5 -11 11 0 5 4 7 10 4 6 -4 7 1 4 12 -5 15 -4 15 4 3
6 -8 9 -17 6 -21 -2 -4 3 -12 11 -19 17 -14 19 -7 5 20 -8 16 -8 18 5 14 8 -3
13 -10 10 -14 -3 -4 2 -13 9 -19 9 -8 16 -8 20 -2 4 5 2 12 -3 16 -6 3 -8 13
-5 23 5 14 4 15 -5 2 -9 -12 -11 -13 -11 -1 0 8 -3 11 -6 8 -4 -3 -15 -2 -25
4 -16 8 -22 4 -36 -26z"/>
<path d="M1986 5235 c-7 -18 3 -45 16 -45 5 0 7 -4 4 -9 -3 -5 2 -15 11 -22
15 -12 16 -12 10 3 -4 12 -2 15 9 11 11 -4 12 -9 5 -16 -17 -17 -13 -31 4 -17
9 7 14 19 11 26 -3 7 2 15 10 18 9 3 13 10 10 15 -3 4 5 7 17 7 12 -1 28 2 35
7 7 6 17 5 26 -3 12 -9 15 -8 13 7 -1 15 -9 19 -45 18 -38 -1 -47 -6 -59 -28
-14 -27 -33 -36 -33 -16 0 5 -4 8 -9 5 -13 -9 -32 19 -25 38 3 9 4 16 1 16 -3
0 -7 -7 -11 -15z"/>
<path d="M1947 5234 c-4 -4 3 -19 15 -32 13 -14 18 -22 11 -18 -6 3 -14 2 -18
-4 -6 -9 7 -14 20 -7 10 5 40 -49 37 -68 -2 -19 -2 -19 8 -2 9 14 6 26 -17 61
-15 24 -33 51 -38 61 -6 9 -13 13 -18 9z"/>
<path d="M4576 5222 c-2 -4 -1 -14 4 -22 7 -11 9 -9 7 8 -1 24 -3 26 -11 14z"/>
<path d="M2181 5203 c-7 -14 -12 -15 -25 -4 -9 7 -21 9 -28 5 -7 -5 -19 -9
-27 -9 -8 0 -19 -9 -25 -20 -6 -11 -19 -31 -28 -44 -24 -32 -23 -36 10 -39 15
-1 41 -4 57 -7 70 -11 69 -11 69 14 0 14 -6 27 -13 29 -8 3 -11 0 -8 -5 3 -5
0 -10 -8 -10 -20 0 -19 2 12 32 15 14 23 25 17 25 -5 0 -15 -5 -21 -11 -8 -8
-13 -8 -17 0 -4 6 -12 11 -18 11 -7 0 -7 -4 0 -13 12 -14 5 -57 -10 -57 -5 0
-4 9 2 21 17 30 4 35 -15 6 -9 -14 -25 -25 -35 -24 -15 1 -16 5 -7 24 7 16 16
22 29 17 12 -3 16 -1 13 8 -2 7 7 21 20 31 19 14 23 14 19 3 -4 -11 0 -14 16
-11 13 2 30 1 39 -4 18 -10 41 -4 41 10 0 6 -4 8 -9 5 -15 -10 -40 5 -34 20 7
20 -4 18 -16 -3z m-11 -113 c0 -5 -7 -7 -15 -4 -8 4 -15 8 -15 10 0 2 7 4 15
4 8 0 15 -4 15 -10z"/>
<path d="M4474 5203 c1 -7 6 -16 11 -20 4 -5 5 -2 0 6 -6 10 -4 13 7 9 8 -4
15 -1 15 6 0 6 -8 12 -17 12 -10 0 -17 -6 -16 -13z"/>
<path d="M4629 5203 c-13 -16 -12 -17 4 -4 9 7 17 15 17 17 0 8 -8 3 -21 -13z"/>
<path d="M1915 5197 c-18 -10 -22 -20 -16 -42 0 -3 7 0 15 7 10 9 11 15 2 21
-6 4 -3 6 9 5 11 -2 21 1 23 7 5 15 -11 16 -33 2z"/>
<path d="M4446 5197 c3 -10 9 -15 12 -12 3 3 0 11 -7 18 -10 9 -11 8 -5 -6z"/>
<path d="M4554 5186 c3 -16 8 -31 11 -35 3 -3 4 7 1 23 -3 16 -8 31 -11 35 -3
3 -4 -7 -1 -23z"/>
<path d="M4668 5203 c6 -2 10 -9 7 -14 -4 -5 2 -6 11 -2 13 5 15 3 9 -7 -6 -9
-4 -11 5 -5 10 6 9 11 -5 22 -11 7 -24 13 -29 12 -6 0 -5 -3 2 -6z"/>
<path d="M4736 5195 c-3 -8 0 -17 6 -21 6 -4 8 -3 4 4 -3 5 -1 12 6 14 8 3 9
6 1 11 -6 4 -13 0 -17 -8z"/>
<path d="M1829 5195 c-1 -6 -1 -14 0 -19 1 -4 -3 -14 -9 -21 -19 -23 -1 -42
43 -43 23 -1 63 -4 88 -7 35 -4 48 -2 52 9 6 14 -2 24 -32 41 -9 5 -12 4 -7
-3 4 -7 1 -12 -6 -12 -8 0 -6 -5 5 -11 9 -5 22 -7 29 -3 6 4 8 3 4 -4 -7 -11
-63 -10 -58 2 19 43 11 60 -16 31 -16 -18 -16 -18 2 -4 18 13 18 13 6 -8 -14
-21 -14 -21 -28 -2 -13 19 -32 18 -32 -2 0 -6 4 -8 9 -4 5 3 12 1 15 -4 3 -4
-4 -8 -17 -7 -12 0 -26 7 -30 14 -5 7 -13 9 -19 6 -7 -4 -8 -2 -4 5 4 6 12 8
18 5 7 -5 9 -2 6 8 -4 8 -1 15 7 15 8 0 11 -7 7 -16 -5 -14 -3 -14 11 -2 18
15 13 35 -8 27 -7 -2 -18 1 -24 7 -6 6 -12 7 -12 2z"/>
<path d="M4357 5187 c-3 -8 1 -14 8 -14 7 0 11 6 8 14 -3 7 -6 13 -8 13 -2 0
-5 -6 -8 -13z"/>
<path d="M4315 5181 c-3 -5 -2 -12 3 -15 5 -3 9 1 9 9 0 17 -3 19 -12 6z"/>
<path d="M4400 5180 c-9 -6 -10 -10 -3 -10 6 0 15 5 18 10 8 12 4 12 -15 0z"/>
<path d="M4792 5181 c-11 -7 -10 -9 3 -14 9 -4 14 -3 10 2 -3 5 1 12 7 14 7 3
9 6 3 6 -5 0 -16 -3 -23 -8z"/>
<path d="M4598 5173 c7 -3 16 -2 19 1 4 3 -2 6 -13 5 -11 0 -14 -3 -6 -6z"/>
<path d="M4633 5166 c0 -8 8 -13 19 -11 10 2 22 -4 28 -13 5 -9 10 -12 10 -6
0 6 -7 17 -15 24 -8 7 -15 9 -15 5 0 -4 -6 -2 -13 4 -10 8 -14 7 -14 -3z"/>
<path d="M4490 5158 c0 -4 11 -6 24 -4 14 2 27 0 30 -5 2 -5 3 -4 2 3 -3 14
-56 20 -56 6z"/>
<path d="M4704 5159 c-5 -8 -3 -9 6 -4 7 4 16 2 22 -6 8 -12 9 -12 6 0 -6 20
-24 25 -34 10z"/>
<path d="M4830 5156 c4 -4 16 -4 26 2 16 9 14 10 -8 9 -15 -1 -23 -6 -18 -11z"/>
<path d="M1160 5149 c0 -5 -5 -7 -12 -3 -7 5 -8 3 -4 -5 5 -8 3 -11 -7 -9 -16
3 -107 -52 -128 -79 -8 -10 4 -4 26 13 52 40 60 44 92 50 23 4 25 3 13 -10 -7
-9 -16 -14 -20 -11 -4 2 -28 -9 -53 -26 -43 -28 -45 -32 -35 -55 6 -13 13 -22
15 -20 3 2 0 14 -7 25 -15 29 -8 26 30 -9 32 -30 60 -39 60 -20 0 5 -6 7 -13
4 -8 -3 -26 7 -40 22 l-27 27 22 18 c11 11 24 19 27 20 3 0 16 2 29 5 21 4 31
-9 15 -19 -5 -2 -2 -2 6 0 8 2 11 -2 7 -12 -8 -22 2 -18 15 6 6 12 7 19 1 15
-5 -3 -13 1 -16 10 -9 23 3 32 15 14 9 -12 9 -11 4 5 -4 11 -7 28 -7 38 0 9
-1 17 -4 17 -2 0 -4 -5 -4 -11z"/>
<path d="M1683 5135 c25 -24 42 -22 28 2 -5 9 -18 17 -30 18 -20 2 -20 1 2
-20z"/>
<path d="M2203 5143 c8 -9 20 -12 26 -9 19 12 12 21 -15 23 -24 1 -25 -1 -11
-14z"/>
<path d="M4360 5135 c-7 -8 -17 -12 -24 -8 -6 3 -7 2 -3 -2 4 -5 15 -10 23
-11 9 -1 13 0 10 3 -3 4 -1 12 5 20 6 7 9 13 6 13 -2 0 -10 -7 -17 -15z"/>
<path d="M4594 5118 c-1 -15 3 -28 9 -28 6 0 8 3 4 6 -3 3 -2 16 3 28 6 16 5
23 -3 23 -7 0 -12 -13 -13 -29z"/>
<path d="M4750 5140 c0 -5 7 -7 15 -4 8 4 15 8 15 10 0 2 -7 4 -15 4 -8 0 -15
-4 -15 -10z"/>
<path d="M4796 5139 c3 -5 9 -7 14 -4 5 3 8 -4 7 -15 -1 -12 -6 -19 -14 -16
-7 3 -13 1 -13 -5 0 -6 8 -9 17 -7 24 4 24 50 0 54 -9 1 -15 -2 -11 -7z"/>
<path d="M4849 5128 c-6 -12 -6 -18 1 -18 5 0 10 7 10 16 0 15 2 15 25 0 32
-21 39 -20 18 2 -23 23 -42 23 -54 0z"/>
<path d="M2076 5131 c-4 -7 -5 -15 -2 -18 9 -9 19 4 14 18 -4 11 -6 11 -12 0z"/>
<path d="M4573 5125 c0 -8 4 -12 9 -9 5 3 6 10 3 15 -9 13 -12 11 -12 -6z"/>
<path d="M4700 5125 c0 -8 4 -15 10 -15 5 0 7 7 4 15 -4 8 -8 15 -10 15 -2 0
-4 -7 -4 -15z"/>
<path d="M4410 5122 c0 -4 9 -8 20 -9 11 -1 20 2 20 5 0 4 -9 8 -20 9 -11 1
-20 -2 -20 -5z"/>
<path d="M4537 5116 c-4 -10 -1 -13 8 -9 8 3 12 9 9 14 -7 12 -11 11 -17 -5z"/>
<path d="M4770 5115 c0 -8 2 -15 4 -15 2 0 6 7 10 15 3 8 1 15 -4 15 -6 0 -10
-7 -10 -15z"/>
<path d="M4629 5103 c-11 -15 -11 -16 1 -5 18 15 34 16 24 0 -4 -7 -3 -8 5 -4
12 8 6 26 -8 26 -5 0 -15 -8 -22 -17z"/>
<path d="M4487 5099 c7 -7 15 -10 18 -7 3 3 -2 9 -12 12 -14 6 -15 5 -6 -5z"/>
<path d="M4753 5084 c0 -17 2 -22 7 -13 5 6 6 18 3 26 -8 19 -10 16 -10 -13z"/>
<path d="M4870 5100 c0 -5 4 -10 9 -10 5 0 11 -9 14 -21 3 -12 10 -18 16 -14
6 3 11 2 11 -4 0 -5 -5 -12 -10 -14 -6 -3 -5 -4 2 -3 7 2 13 9 13 17 0 8 -5
13 -11 12 -7 -1 -15 9 -18 22 -6 24 -26 35 -26 15z"/>
<path d="M4935 5100 c3 -5 11 -10 16 -10 6 0 7 5 4 10 -3 6 -11 10 -16 10 -6
0 -7 -4 -4 -10z"/>
<path d="M4919 5087 c17 -21 58 -46 47 -28 -4 6 -2 11 3 11 6 0 11 5 11 11 0
8 -5 7 -15 -1 -13 -10 -19 -9 -38 6 -19 17 -20 17 -8 1z"/>
<path d="M4670 5086 c0 -2 7 -7 16 -10 8 -3 12 -2 9 4 -6 10 -25 14 -25 6z"/>
<path d="M4715 5080 c-3 -6 1 -7 9 -4 18 7 21 14 7 14 -6 0 -13 -4 -16 -10z"/>
<path d="M4838 5083 c7 -3 16 -2 19 1 4 3 -2 6 -13 5 -11 0 -14 -3 -6 -6z"/>
<path d="M1092 5058 c-7 -7 -12 -19 -11 -27 0 -14 1 -14 6 -1 4 8 13 20 22 27
9 7 11 13 6 13 -6 0 -16 -5 -23 -12z"/>
<path d="M4815 5061 c-3 -5 0 -13 6 -17 7 -4 9 -3 5 4 -4 7 1 10 14 9 21 -1
27 -12 10 -20 -6 -3 -5 -4 2 -3 7 2 13 9 13 16 0 15 -41 24 -50 11z"/>
<path d="M4977 5050 c-9 -11 -13 -20 -7 -20 5 0 14 9 20 20 6 11 9 20 8 20 -2
0 -11 -9 -21 -20z"/>
<path d="M4780 5050 c-9 -6 -10 -10 -3 -10 6 0 15 5 18 10 8 12 4 12 -15 0z"/>
<path d="M1120 5040 c0 -5 5 -10 10 -10 6 0 10 5 10 10 0 6 -4 10 -10 10 -5 0
-10 -4 -10 -10z"/>
<path d="M4986 5018 c-11 -17 -14 -28 -8 -25 5 4 12 0 16 -8 3 -8 11 -15 18
-14 10 0 10 2 1 6 -7 2 -13 9 -13 14 0 6 5 7 12 3 7 -4 8 -3 4 4 -4 7 -2 12 3
12 6 0 11 5 11 12 0 6 -9 3 -20 -7 -21 -19 -28 -7 -8 13 6 6 9 14 7 17 -3 2
-13 -10 -23 -27z"/>
<path d="M987 5029 c7 -7 15 -10 18 -7 3 3 -2 9 -12 12 -14 6 -15 5 -6 -5z"/>
<path d="M4800 5037 c0 -2 14 -13 30 -25 17 -13 30 -19 30 -14 0 4 -13 16 -30
25 -16 10 -30 16 -30 14z"/>
<path d="M4870 5020 c0 -5 5 -10 10 -10 6 0 10 5 10 10 0 6 -4 10 -10 10 -5 0
-10 -4 -10 -10z"/>
<path d="M4930 5020 c0 -5 -6 -10 -14 -10 -20 0 -31 -19 -18 -32 6 -6 8 -18 5
-27 -4 -9 -3 -13 1 -9 4 3 8 13 10 21 1 8 10 26 19 40 10 15 13 27 7 27 -5 0
-10 -4 -10 -10z m-10 -24 c0 -3 -4 -8 -10 -11 -5 -3 -10 -1 -10 4 0 6 5 11 10
11 6 0 10 -2 10 -4z"/>
<path d="M973 5006 c11 -8 25 -12 33 -9 10 4 12 0 8 -13 -6 -15 -4 -16 6 -7
14 13 4 36 -13 30 -7 -2 -21 0 -32 5 -19 9 -19 8 -2 -6z"/>
<path d="M1108 5013 c7 -3 16 -2 19 1 4 3 -2 6 -13 5 -11 0 -14 -3 -6 -6z"/>
<path d="M946 4985 c3 -8 13 -11 22 -8 9 4 14 3 10 -2 -4 -4 1 -20 12 -35 18
-26 18 -40 -2 -40 -5 0 -6 5 -3 10 3 6 -1 13 -9 16 -9 3 -13 10 -10 15 3 5 -3
6 -12 2 -11 -4 -15 -2 -11 4 4 6 -1 17 -11 24 -15 12 -16 12 -5 -2 7 -9 10
-19 6 -22 -3 -4 2 -9 11 -13 16 -6 16 -8 0 -25 -9 -11 -12 -19 -7 -19 6 0 13
7 17 15 3 8 10 15 16 15 6 0 9 -4 5 -9 -9 -16 15 -24 31 -10 10 8 12 15 4 23
-16 16 -12 30 5 16 8 -7 15 -9 15 -5 0 9 -48 48 -71 57 -13 5 -16 3 -13 -7z"/>
<path d="M5034 4988 c7 -22 -45 -61 -69 -52 -11 5 -8 -2 9 -21 26 -28 47 -26
45 3 -1 15 -2 15 -6 0 -5 -22 -23 -24 -23 -4 0 8 14 23 30 33 33 19 34 22 19
43 -9 13 -10 12 -5 -2z"/>
<path d="M5057 4990 c22 -30 20 -63 -7 -77 -16 -8 -19 -13 -9 -13 9 0 22 7 29
15 16 19 40 2 33 -24 -2 -10 2 -25 11 -33 11 -11 12 -18 3 -27 -21 -21 -25
-12 -28 56 -1 13 -5 20 -10 17 -12 -7 -11 -41 1 -49 6 -3 10 -12 10 -18 -1 -7
-9 -2 -20 11 -10 12 -21 18 -24 13 -3 -5 0 -11 7 -14 16 -6 16 -42 0 -58 -8
-8 -13 -8 -17 0 -4 6 -2 11 3 11 6 0 11 6 11 12 0 7 -10 3 -22 -9 -17 -17 -19
-25 -10 -36 7 -8 9 -17 5 -20 -3 -4 2 -9 11 -13 9 -3 13 -10 10 -15 -3 -5 0
-17 6 -26 10 -16 10 -15 5 4 -3 12 -1 24 5 28 5 3 10 -1 10 -9 0 -9 5 -16 11
-16 6 0 4 -6 -4 -14 -21 -21 -10 -108 19 -153 13 -20 13 -23 -2 -23 -13 0 -14
-3 -4 -15 7 -8 9 -15 4 -15 -4 0 -3 -5 4 -12 7 -7 8 -17 2 -29 -6 -10 -7 -20
-2 -23 9 -5 8 -241 -2 -279 -5 -22 -3 -26 14 -24 11 1 20 5 20 10 0 5 -7 7
-15 3 -13 -4 -14 -2 -5 14 6 11 7 20 3 20 -4 1 2 9 15 20 12 10 18 21 13 24
-5 4 -11 0 -14 -6 -2 -7 -8 -9 -13 -5 -10 9 16 28 28 21 16 -10 8 16 -11 35
-18 18 -18 18 0 30 11 6 19 16 19 22 0 8 -5 7 -15 -1 -9 -7 -18 -10 -22 -6 -3
3 0 6 8 6 12 0 11 2 -1 11 -13 10 -13 10 1 6 9 -3 16 1 16 8 0 7 -7 11 -16 8
-14 -4 -14 -4 -1 6 13 9 13 11 0 11 -13 0 -13 1 0 10 10 6 11 10 3 10 -9 0 -7
6 5 18 21 23 30 19 11 -5 -8 -9 -9 -14 -3 -10 8 4 11 -3 9 -22 -1 -17 3 -28
11 -28 7 0 10 5 7 10 -3 6 -1 7 6 3 9 -6 9 -11 -1 -24 -11 -13 -11 -15 2 -8 8
4 6 0 -5 -10 -17 -14 -18 -16 -2 -10 10 3 15 2 12 -3 -8 -15 9 -21 25 -9 12 8
11 9 -5 4 -14 -5 -11 0 10 18 17 13 27 28 23 32 -4 4 -2 14 5 22 10 13 9 14
-3 7 -12 -6 -13 -6 -2 6 11 12 14 12 22 -1 5 -9 5 -19 -1 -27 -11 -13 -4 -33
12 -33 5 0 9 5 9 11 0 5 -4 7 -10 4 -5 -3 -10 -1 -10 4 0 6 4 11 9 11 10 0 9
95 -1 105 -4 4 -4 13 -1 21 3 8 0 21 -6 28 -9 11 -9 15 1 19 8 4 9 6 1 6 -6 1
-9 10 -6 21 3 12 0 20 -6 20 -7 0 -10 -4 -7 -9 3 -4 -1 -17 -9 -27 -8 -10 -15
-14 -15 -7 0 6 5 15 10 18 6 4 8 10 5 15 -3 5 3 13 12 19 10 6 14 11 8 11 -5
0 -10 10 -11 23 -2 31 -8 60 -17 75 -5 6 -5 12 -1 12 3 0 1 7 -6 15 -7 8 -9
15 -5 15 4 0 2 7 -5 15 -7 8 -9 15 -6 15 4 0 1 10 -6 23 -7 12 -11 29 -10 37
1 10 -1 11 -4 3 -3 -7 -10 -13 -15 -13 -6 0 -7 5 -4 10 3 6 1 10 -5 10 -7 0
-9 -7 -6 -16 4 -10 2 -14 -6 -11 -7 2 -12 10 -10 16 1 7 -2 9 -9 5 -7 -4 -10
-1 -7 7 3 8 17 13 31 13 15 -1 24 2 21 7 -2 4 -12 5 -22 2 -15 -6 -16 -5 -2
12 12 15 12 17 1 10 -11 -6 -13 -4 -8 8 3 9 1 19 -5 23 -7 4 -8 3 -4 -4 4 -7
2 -12 -3 -12 -15 0 -14 30 2 30 6 0 4 5 -6 11 -9 6 -14 15 -11 21 4 7 2 8 -4
4 -7 -4 -14 3 -18 18 -3 14 -13 31 -22 38 -15 11 -15 11 -5 -2z m96 -215 c10
4 19 -1 26 -14 10 -17 9 -20 -4 -15 -8 4 -23 0 -32 -7 -15 -12 -16 -12 -10 3
7 19 -15 35 -43 32 -8 -1 -21 -2 -28 -3 -9 -1 -11 -8 -7 -21 5 -15 3 -18 -9
-14 -9 3 -14 10 -11 14 3 5 1 11 -5 15 -5 3 -10 11 -10 17 0 7 4 7 14 -1 10
-9 16 -8 25 3 7 8 20 12 29 10 15 -5 15 -4 0 6 -10 6 -18 16 -18 22 0 7 15 -3
33 -20 21 -21 39 -30 50 -27z m-30 -14 c4 -1 2 -7 -5 -14 -9 -10 -17 -11 -34
-3 -27 13 -23 24 8 20 13 -1 27 -3 31 -3z m-31 -41 c-3 -11 0 -11 13 0 8 7 19
10 22 6 7 -7 -14 -26 -29 -26 -4 0 -12 10 -19 21 -9 17 -8 20 3 16 7 -2 12
-10 10 -17z m94 5 c10 -8 15 -15 10 -15 -5 0 -2 -7 5 -17 12 -14 12 -16 -1
-11 -8 3 -14 12 -14 21 1 9 -2 14 -7 11 -5 -3 -9 0 -9 5 0 6 -9 2 -20 -9 -11
-11 -20 -24 -20 -29 0 -11 -29 -23 -39 -16 -4 2 -8 -2 -8 -9 0 -9 7 -12 16 -8
14 5 14 4 1 -13 -11 -14 -12 -19 -2 -22 6 -3 12 -9 12 -14 0 -6 -5 -7 -12 -3
-7 5 -8 3 -3 -6 5 -9 14 -4 31 16 28 35 32 20 4 -16 -23 -29 -26 -44 -7 -37 8
3 14 -1 14 -8 0 -7 -7 -11 -16 -8 -13 4 -13 3 -2 -5 8 -6 10 -15 6 -22 -6 -9
-4 -11 5 -5 9 6 11 4 5 -5 -6 -9 -4 -11 6 -5 12 7 11 5 -1 -11 -11 -15 -11
-16 0 -6 17 15 30 16 30 1 0 -5 -4 -8 -9 -5 -5 3 -14 0 -19 -7 -8 -9 -6 -16 9
-25 15 -10 19 -10 19 0 0 9 3 9 9 -2 6 -8 7 -18 4 -24 -3 -5 -1 -6 5 -2 8 5
10 1 6 -11 -5 -15 -4 -16 5 -3 9 13 11 13 11 0 0 -12 2 -13 9 -1 7 11 9 11 13
0 3 -8 9 -10 14 -6 10 10 -16 28 -29 20 -5 -3 -7 0 -5 8 3 8 11 13 18 11 10
-2 11 0 2 11 -7 8 -8 18 -4 22 4 5 1 5 -6 1 -8 -5 -11 -2 -10 6 2 7 -6 13 -17
13 -11 1 -19 6 -18 13 2 6 -3 9 -11 6 -18 -7 -31 15 -17 29 7 7 18 3 36 -17
21 -23 28 -26 41 -15 8 7 14 8 13 3 -1 -5 0 -11 1 -14 1 -3 3 -16 5 -30 2 -14
6 -40 9 -58 3 -19 1 -30 -5 -26 -17 10 -38 -16 -33 -41 3 -17 -2 -27 -15 -34
-16 -9 -19 -8 -16 7 3 20 -13 44 -25 37 -4 -3 -6 11 -4 30 3 36 -12 57 -22 31
-3 -9 -10 -16 -16 -16 -5 0 -7 4 -3 9 3 5 1 12 -5 16 -7 4 -7 12 0 25 6 11 6
21 1 24 -10 7 -9 25 2 43 4 6 3 14 -3 18 -6 4 -8 11 -5 16 4 5 2 9 -3 9 -5 0
-9 6 -10 13 -1 15 -10 52 -12 52 -1 0 -3 13 -5 29 -2 23 4 32 31 48 18 10 35
25 38 33 7 19 17 19 42 0z m32 -85 c9 -42 9 -76 0 -87 -6 -7 -7 -13 -3 -13 4
0 2 -7 -5 -15 -11 -14 -15 -13 -27 5 -8 12 -21 19 -29 16 -8 -3 -13 0 -11 7 1
7 -4 11 -11 9 -8 -1 -11 2 -7 8 3 6 11 7 17 4 6 -4 8 -1 6 7 -3 8 1 21 9 30
12 14 12 17 -1 22 -8 3 -20 -1 -26 -8 -7 -8 -16 -12 -22 -9 -5 3 -4 12 3 20 6
8 9 14 6 14 -3 0 6 13 20 29 l25 28 26 -26 c15 -14 28 -33 30 -41z m-11 -167
c-4 -3 -2 -12 4 -19 7 -8 6 -14 -2 -20 -6 -4 -16 0 -21 9 -5 9 -15 14 -23 11
-8 -4 -15 -1 -15 6 0 6 4 9 8 6 4 -2 14 -1 22 5 17 10 37 12 27 2z m-77 -233
c0 -5 -4 -10 -10 -10 -5 0 -10 5 -10 10 0 6 5 10 10 10 6 0 10 -4 10 -10z"/>
<path d="M5155 4520 c-3 -5 -1 -10 4 -10 6 0 11 5 11 10 0 6 -2 10 -4 10 -3 0
-8 -4 -11 -10z"/>
<path d="M5114 4486 c1 -8 5 -18 8 -22 4 -3 5 1 4 10 -1 8 -5 18 -8 22 -4 3
-5 -1 -4 -10z"/>
<path d="M5117 4436 c-7 -18 8 -31 18 -16 11 18 35 -10 31 -35 -3 -14 3 -30
15 -41 10 -9 16 -21 13 -25 -3 -5 0 -9 5 -9 6 0 9 10 7 23 -2 12 3 30 11 39
14 16 14 17 -6 13 -20 -4 -46 24 -36 39 3 3 2 4 -2 1 -3 -3 -12 0 -20 6 -7 6
-13 8 -13 3 0 -5 -4 -3 -9 4 -7 11 -9 11 -14 -2z m89 -58 c4 4 3 0 -4 -9 -6
-9 -9 -20 -5 -25 4 -5 1 -3 -7 3 -18 16 -24 49 -6 34 7 -6 17 -7 22 -3z"/>
<path d="M5159 4681 c11 -7 10 -10 -5 -15 -11 -3 -25 -16 -33 -28 -13 -22 -13
-23 6 -5 11 9 23 14 28 10 4 -5 5 -3 2 3 -4 7 0 15 9 18 12 5 15 2 10 -10 -4
-10 3 -23 16 -35 13 -10 18 -18 13 -19 -6 0 -16 5 -21 10 -8 8 -15 6 -24 -5
-7 -8 -10 -16 -6 -16 3 -1 11 -3 16 -4 6 -1 13 -3 18 -4 4 -1 1 -5 -7 -10 -12
-8 -12 -12 -2 -25 8 -9 19 -16 25 -16 6 0 4 4 -4 10 -12 8 -12 10 3 16 17 6
17 7 0 21 -15 13 -16 14 -1 10 16 -5 19 7 7 28 -4 6 -5 18 -3 28 1 11 0 16 -3
13 -4 -3 -12 3 -20 14 -8 11 -20 20 -26 20 -8 0 -7 -3 2 -9z m25 -79 c3 -5 -1
-9 -9 -9 -8 0 -12 4 -9 9 3 4 7 8 9 8 2 0 6 -4 9 -8z"/>
<path d="M1054 4976 c-3 -9 -11 -13 -17 -9 -6 3 -7 1 -3 -5 4 -7 11 -12 16
-12 10 0 23 31 15 38 -2 3 -7 -3 -11 -12z"/>
<path d="M4934 4978 c-5 -8 -2 -9 9 -5 10 4 20 0 26 -11 5 -9 13 -13 17 -9 4
4 -1 14 -12 22 -23 18 -31 18 -40 3z"/>
<path d="M1100 4960 c0 -5 5 -10 11 -10 5 0 7 5 4 10 -3 6 -8 10 -11 10 -2 0
-4 -4 -4 -10z"/>
<path d="M907 4953 c-4 -3 -1 -13 6 -21 10 -13 9 -15 -6 -9 -11 4 -16 3 -12
-3 8 -13 35 -13 35 -1 0 6 -5 13 -10 16 -6 4 -8 11 -5 16 7 10 1 12 -8 2z"/>
<path d="M1060 4930 c-7 -14 -7 -20 0 -20 5 0 10 7 10 15 0 8 5 15 11 15 5 0
7 -5 3 -12 -4 -7 -3 -8 5 -4 12 8 6 26 -9 26 -5 0 -14 -9 -20 -20z"/>
<path d="M4920 4943 c0 -6 7 -19 16 -27 8 -9 21 -16 27 -16 7 0 4 5 -5 11 -10
5 -22 17 -27 27 -6 9 -11 12 -11 5z"/>
<path d="M5040 4940 c-8 -5 -12 -11 -9 -14 2 -3 11 -1 19 4 8 5 12 11 9 14 -2
3 -11 1 -19 -4z"/>
<path d="M1030 4911 c0 -10 19 -25 25 -20 1 2 -3 10 -11 17 -8 7 -14 8 -14 3z"/>
<path d="M875 4900 c-3 -5 -1 -10 4 -10 6 0 11 5 11 10 0 6 -2 10 -4 10 -3 0
-8 -4 -11 -10z"/>
<path d="M912 4870 c7 -10 14 -18 15 -16 6 6 -9 36 -18 36 -5 0 -4 -9 3 -20z"/>
<path d="M950 4880 c-13 -8 -12 -10 3 -10 9 0 17 5 17 10 0 12 -1 12 -20 0z"/>
<path d="M1012 4881 c2 -7 7 -12 11 -12 12 1 9 15 -3 20 -7 2 -11 -2 -8 -8z"/>
<path d="M4968 4879 c18 -7 22 -14 16 -31 -8 -27 -2 -23 16 11 6 13 7 21 2 17
-6 -3 -13 -2 -17 4 -3 5 -14 10 -23 9 -12 0 -10 -3 6 -10z"/>
<path d="M5020 4880 c0 -5 5 -10 10 -10 6 0 10 5 10 10 0 6 -4 10 -10 10 -5 0
-10 -4 -10 -10z"/>
<path d="M873 4870 c2 -8 10 -14 17 -12 8 2 10 -3 7 -13 -4 -8 -2 -15 4 -15 6
0 9 7 7 16 -2 8 -7 14 -12 14 -5 -1 -13 4 -18 12 -8 10 -9 10 -5 -2z"/>
<path d="M974 4859 c-5 -9 -2 -10 9 -6 9 3 18 2 21 -4 2 -5 3 -4 2 3 -3 17
-23 21 -32 7z"/>
<path d="M5002 4835 c-15 -32 -3 -38 27 -14 13 10 19 19 14 19 -5 0 -14 -5
-21 -12 -7 -7 -12 -8 -12 -2 0 6 5 15 12 22 7 7 8 12 2 12 -6 0 -16 -11 -22
-25z"/>
<path d="M845 4840 c-3 -6 1 -7 9 -4 18 7 21 14 7 14 -6 0 -13 -4 -16 -10z"/>
<path d="M935 4840 c-3 -5 -3 -10 2 -11 4 0 -1 -5 -12 -10 l-20 -9 20 3 c11 2
19 9 17 16 -2 9 5 10 20 6 18 -5 20 -4 8 4 -19 13 -27 14 -35 1z"/>
<path d="M857 4823 c-2 -5 -3 -16 -2 -25 2 -10 -5 -20 -17 -24 -11 -3 -17 -8
-15 -11 12 -12 46 18 42 38 -3 17 0 19 18 14 17 -5 19 -4 7 4 -18 13 -27 14
-33 4z"/>
<path d="M970 4814 c-17 -9 -20 -14 -9 -14 9 0 22 7 29 15 15 18 13 18 -20 -1z"/>
<path d="M894 4778 c-4 -7 -4 -10 1 -6 4 4 14 0 22 -10 13 -15 13 -15 3 6 -12
25 -16 27 -26 10z"/>
<path d="M935 4780 c-3 -6 1 -7 9 -4 18 7 21 14 7 14 -6 0 -13 -4 -16 -10z"/>
<path d="M874 4762 c3 -6 0 -13 -6 -16 -7 -3 -2 -3 11 0 17 5 21 3 16 -6 -5
-9 -4 -11 3 -6 16 10 15 14 -9 27 -13 6 -19 7 -15 1z"/>
<path d="M810 4745 c0 -7 30 -13 34 -7 3 4 -4 9 -15 9 -10 1 -19 0 -19 -2z"/>
<path d="M933 4722 c2 -12 6 -24 10 -28 3 -4 4 4 2 16 -6 30 -16 40 -12 12z"/>
<path d="M810 4720 c0 -5 5 -10 11 -10 5 0 7 5 4 10 -3 6 -8 10 -11 10 -2 0
-4 -4 -4 -10z"/>
<path d="M850 4726 c0 -2 7 -7 16 -10 8 -3 12 -2 9 4 -6 10 -25 14 -25 6z"/>
<path d="M910 4701 c0 -6 4 -13 10 -16 6 -3 7 1 4 9 -7 18 -14 21 -14 7z"/>
<path d="M842 4681 c-11 -6 -9 -9 6 -13 15 -4 19 -2 15 8 -6 16 -4 16 -21 5z"/>
<path d="M924 4655 c-4 -8 -11 -12 -17 -8 -6 3 -7 1 -3 -5 11 -18 23 -14 29 8
6 23 -1 27 -9 5z"/>
<path d="M827 4639 c7 -7 15 -10 18 -7 3 3 -2 9 -12 12 -14 6 -15 5 -6 -5z"/>
<path d="M853 4605 c0 -8 5 -11 10 -8 6 4 8 0 5 -8 -4 -10 1 -15 12 -15 11 0
16 5 12 15 -4 10 -1 12 8 6 9 -5 11 -4 6 4 -4 6 -12 9 -17 5 -5 -3 -16 -1 -23
5 -9 8 -13 7 -13 -4z"/>
<path d="M798 4603 c7 -3 16 -2 19 1 4 3 -2 6 -13 5 -11 0 -14 -3 -6 -6z"/>
<path d="M919 4588 c-6 -21 -5 -38 1 -38 5 0 8 9 7 20 -1 17 -5 26 -8 18z"/>
<path d="M828 4531 c4 -10 1 -12 -9 -6 -8 5 -11 4 -6 0 4 -5 15 -10 23 -11 9
-1 13 0 10 3 -3 4 -2 11 4 17 6 8 3 12 -9 12 -12 0 -17 -5 -13 -15z"/>
<path d="M809 4483 c-13 -16 -12 -17 4 -4 9 7 17 15 17 17 0 8 -8 3 -21 -13z"/>
<path d="M852 4451 c-11 -6 -10 -10 0 -19 11 -8 14 -7 14 9 0 10 0 19 -1 19 0
0 -6 -4 -13 -9z"/>
<path d="M815 4440 c3 -5 8 -10 11 -10 2 0 4 5 4 10 0 6 -5 10 -11 10 -5 0 -7
-4 -4 -10z"/>
<path d="M905 4420 c-3 -6 1 -7 9 -4 18 7 21 14 7 14 -6 0 -13 -4 -16 -10z"/>
<path d="M833 4396 c-3 -6 -3 -8 2 -4 4 4 13 3 20 -2 8 -7 12 -5 12 3 0 16
-25 18 -34 3z"/>
<path d="M916 4401 c-3 -5 2 -15 12 -22 15 -12 16 -12 5 2 -7 9 -10 19 -6 22
3 4 4 7 0 7 -3 0 -8 -4 -11 -9z"/>
<path d="M830 4377 c0 -2 6 -10 14 -16 11 -9 16 -9 22 1 4 7 4 10 -1 6 -4 -4
-14 -3 -22 3 -7 6 -13 9 -13 6z"/>
<path d="M890 4376 c0 -2 8 -10 18 -17 15 -13 16 -12 3 4 -13 16 -21 21 -21
13z"/>
<path d="M850 4330 c-9 -6 -10 -10 -3 -10 6 0 15 5 18 10 8 12 4 12 -15 0z"/>
<path d="M5223 4297 c-7 -12 -9 -17 -12 -36 -1 -11 -19 -9 -47 7 -31 17 -37 4
-13 -29 11 -16 16 -29 10 -29 -6 0 -10 -3 -10 -7 3 -20 -2 -33 -12 -30 -14 3
-21 -31 -8 -39 6 -3 7 -15 4 -27 -6 -21 -6 -21 7 -2 15 24 17 38 5 46 -5 4 -4
10 2 13 6 4 11 3 11 -3 0 -6 7 -8 15 -5 14 6 13 8 -2 21 -10 8 -12 12 -6 8 9
-4 11 -1 7 9 -3 9 -1 16 6 16 6 0 9 -4 6 -8 -2 -4 -1 -14 3 -21 6 -9 11 -10
15 -2 4 6 1 11 -6 11 -10 0 -10 2 1 9 11 7 9 10 -8 16 -23 7 -49 45 -31 45 5
0 10 -7 10 -15 0 -8 5 -15 10 -15 6 0 10 6 10 13 0 8 4 7 10 -3 9 -13 10 -13
10 0 0 12 2 12 9 1 5 -8 11 -9 15 -3 3 6 2 13 -4 17 -6 4 -8 11 -4 16 3 5 10
6 16 3 7 -5 8 -2 3 6 -5 8 -4 11 3 6 6 -3 9 -18 6 -31 -2 -14 0 -25 6 -25 5 0
10 12 10 28 0 32 -34 60 -47 39z"/>
<path d="M5213 4209 c1 -10 11 -22 24 -28 23 -11 25 -44 2 -65 -9 -8 -10 -7
-4 2 6 11 3 11 -13 1 -14 -9 -18 -17 -12 -25 6 -6 6 -14 2 -19 -4 -4 0 -6 8
-3 8 3 15 11 15 19 0 8 7 13 15 12 12 -2 16 11 17 57 1 33 -1 61 -5 61 -40 7
-50 5 -49 -12z m47 -12 c0 -7 -4 -6 -10 3 -8 12 -10 12 -10 1 0 -8 -3 -12 -6
-8 -9 9 6 28 17 22 5 -4 9 -12 9 -18z"/>
<path d="M5194 4159 c-16 -10 -29 -22 -29 -26 -1 -5 -6 -18 -13 -31 -7 -12 -9
-21 -5 -20 4 2 21 -10 37 -26 22 -23 30 -26 37 -15 6 9 9 10 9 2 0 -7 -10 -22
-22 -34 -13 -12 -17 -18 -9 -14 10 5 12 4 7 -4 -4 -6 -12 -8 -18 -5 -6 4 -8 1
-6 -7 3 -8 12 -12 19 -11 8 2 11 0 7 -4 -4 -4 -2 -14 5 -23 11 -14 10 -14 -5
-2 -10 7 -18 9 -18 4 0 -11 21 -33 31 -33 9 0 5 42 -5 58 -4 7 1 26 11 43 18
30 17 31 -2 45 -11 8 -20 20 -20 27 0 7 -8 11 -17 9 -9 -1 -19 2 -23 8 -4 6
-3 9 2 8 5 -2 25 6 45 16 33 18 35 21 20 33 -16 12 -16 13 1 7 20 -7 24 1 3 9
-7 3 -26 -3 -42 -14z m20 -8 c3 -5 -1 -14 -8 -20 -12 -10 -14 -9 -11 6 2 10 4
19 4 21 2 5 10 2 15 -7z m-17 -68 c-4 -3 -1 -13 6 -22 11 -14 10 -14 -5 -2
-16 12 -16 31 -1 31 4 0 3 -3 0 -7z"/>
<path d="M5105 4102 c-11 -8 -16 -42 -6 -42 4 0 13 6 21 13 12 10 12 9 0 -6
-12 -16 -12 -18 1 -17 33 5 51 0 46 -14 -3 -7 0 -19 6 -26 9 -10 9 -11 -2 -5
-9 5 -12 4 -7 -3 4 -8 2 -10 -7 -6 -8 3 -18 0 -23 -7 -5 -9 -2 -10 11 -5 16 6
16 4 4 -10 -11 -14 -11 -18 6 -30 11 -9 14 -14 6 -14 -11 0 -11 -3 -1 -15 11
-13 10 -14 -4 -9 -10 4 -15 12 -12 20 3 8 -2 12 -15 11 -21 -1 -27 -17 -6 -17
6 0 4 -5 -6 -11 -10 -6 -21 -8 -24 -5 -4 3 -1 6 7 6 10 0 10 3 0 15 -12 15 -4
20 23 16 4 0 7 8 7 19 0 24 -9 26 -25 4 -11 -15 -12 -15 -12 0 0 9 3 16 6 16
3 0 6 16 6 35 1 45 -17 40 -21 -6 -1 -18 -5 -61 -9 -94 -15 -114 -16 -110 37
-111 27 -1 45 3 42 8 -3 5 1 17 9 26 8 10 14 32 12 52 -1 19 1 42 6 51 5 9 4
20 -2 26 -12 12 8 53 25 53 6 0 -4 11 -22 23 -17 13 -28 27 -24 31 4 4 3 7 -3
5 -16 -4 -45 12 -39 22 6 11 3 11 -11 1z m65 -142 c0 -5 -5 -10 -11 -10 -5 0
-7 5 -4 10 3 6 8 10 11 10 2 0 4 -4 4 -10z m-15 -70 c3 -6 -1 -7 -12 -4 -16 5
-15 3 2 -12 l20 -18 -23 -23 c-13 -14 -25 -23 -27 -21 -8 9 -29 55 -31 66 -1
6 2 12 8 12 6 0 8 -6 5 -14 -4 -10 0 -14 14 -13 21 1 27 17 7 17 -9 0 -8 4 2
10 19 12 27 12 35 0z m-65 -73 c0 -5 -4 -5 -10 -2 -5 3 -10 14 -10 23 0 15 2
15 10 2 5 -8 10 -19 10 -23z"/>
<path d="M5110 3843 c0 -17 15 -16 30 1 9 12 8 15 -9 13 -12 -1 -21 -7 -21
-14z"/>
<path d="M5131 4042 c-1 -7 -5 -11 -9 -8 -4 2 -9 -6 -10 -20 -2 -27 5 -30 28
-11 16 13 26 42 11 33 -5 -4 -12 0 -14 6 -4 10 -6 10 -6 0z"/>
<path d="M5203 3833 c-15 -5 -17 -23 -4 -23 5 0 11 7 15 15 3 8 4 15 3 14 -1
0 -8 -3 -14 -6z"/>
<path d="M795 2220 c-13 -4 -15 -9 -7 -14 7 -4 16 -5 21 -1 6 3 8 -8 6 -25 -2
-16 0 -30 5 -30 9 0 15 23 10 45 -1 6 4 5 10 -1 16 -16 -6 -58 -26 -50 -16 6
-19 -9 -4 -19 10 -6 53 31 63 56 5 12 7 12 16 -1 14 -19 14 -30 0 -30 -5 0 -7
5 -4 10 3 6 2 10 -2 10 -5 0 -13 -8 -20 -19 -10 -17 -8 -18 22 -17 32 1 34 3
30 28 -3 15 0 30 5 33 6 4 10 3 9 -2 -4 -22 2 -34 14 -27 8 6 8 3 -1 -9 -8 -9
-11 -20 -9 -25 3 -4 2 -14 -3 -22 -5 -9 -4 -20 3 -30 10 -13 10 -13 -4 -2 -14
10 -18 10 -23 -4 -9 -22 -8 -24 9 -18 8 4 15 1 15 -6 0 -6 -4 -8 -10 -5 -5 3
-10 1 -10 -4 0 -6 5 -11 10 -11 6 0 10 -5 10 -11 0 -5 -4 -8 -8 -5 -4 2 -13
-4 -20 -15 -14 -21 -3 -25 18 -6 12 10 12 9 1 -5 -10 -14 -10 -18 -1 -18 6 0
10 -5 8 -11 -2 -6 -8 -9 -13 -7 -6 2 -9 6 -8 11 4 11 -15 9 -22 -3 -3 -5 3
-15 14 -22 16 -10 18 -15 8 -27 -10 -12 -9 -13 3 -6 12 8 12 5 -1 -15 -10 -16
-26 -25 -42 -25 -15 -1 -30 -5 -34 -9 -4 -4 1 -6 12 -4 12 2 19 -2 18 -9 -5
-23 23 -14 37 12 7 13 17 22 21 19 4 -2 8 4 7 13 0 16 6 79 17 183 5 43 11 80
16 100 2 8 -1 14 -7 13 -6 -1 -11 4 -11 12 0 8 7 11 16 7 14 -5 14 -3 3 11
-12 14 -16 15 -29 2 -15 -16 -20 -17 -53 -17 -33 0 -38 1 -52 15 -8 8 -21 11
-33 7z"/>
<path d="M782 2153 c-2 -20 -5 -40 -8 -44 -2 -4 11 -6 30 -5 34 3 34 3 19 -20
-9 -15 -11 -24 -4 -24 13 0 43 55 34 63 -3 4 -14 2 -23 -3 -26 -14 -45 12 -31
39 14 26 14 31 -2 31 -8 0 -14 -15 -15 -37z"/>
<path d="M870 2120 c0 -4 -11 -24 -25 -44 -13 -20 -22 -42 -19 -50 3 -8 -3
-23 -14 -34 -19 -19 -19 -19 1 -31 15 -10 18 -10 14 1 -2 7 1 22 6 33 15 28
17 45 5 45 -5 0 -2 7 6 16 9 8 16 19 16 24 0 4 11 15 25 24 21 14 24 14 19 1
-4 -8 -12 -15 -20 -15 -8 0 -14 -5 -14 -11 0 -5 5 -7 12 -3 7 4 8 3 4 -5 -4
-6 -11 -9 -16 -6 -4 3 -11 -2 -14 -11 -5 -12 -1 -14 17 -9 17 5 19 4 7 -4 -8
-6 -12 -11 -8 -11 3 0 14 -3 23 -7 15 -5 16 -3 6 16 -10 18 -9 28 8 55 l20 32
-29 0 c-17 0 -30 -3 -30 -6z"/>
<path d="M790 2085 c0 -8 5 -15 10 -15 6 0 10 7 10 15 0 8 -4 15 -10 15 -5 0
-10 -7 -10 -15z"/>
<path d="M772 2063 c2 -18 2 -33 -2 -33 -4 0 -6 -28 -6 -62 1 -35 -1 -67 -3
-73 -9 -17 -10 -35 -2 -35 13 0 51 31 51 42 0 6 -9 3 -20 -7 -11 -10 -20 -13
-20 -8 0 6 7 14 16 17 8 3 12 11 8 17 -5 8 -9 8 -14 -1 -10 -16 -6 39 4 62 5
10 12 16 16 13 13 -8 20 23 10 47 -5 13 -9 21 -10 18 -7 -25 -7 -39 1 -34 5 3
9 0 9 -6 0 -28 -24 0 -25 28 0 17 -5 35 -9 39 -5 4 -7 -7 -4 -24z"/>
<path d="M858 2021 c11 -7 11 -9 -2 -14 -10 -4 -13 -13 -9 -23 4 -11 2 -15 -4
-11 -6 4 -9 -5 -8 -22 1 -16 -4 -28 -11 -28 -7 0 -10 6 -7 13 2 7 -5 17 -16
24 -14 7 -21 7 -21 0 0 -5 8 -10 18 -11 11 0 12 -2 4 -6 -10 -4 -10 -8 -1 -19
6 -8 15 -12 19 -9 4 3 10 -2 14 -10 3 -8 2 -14 -2 -12 -5 1 -22 -10 -39 -24
-24 -20 -28 -29 -19 -41 6 -8 17 -13 24 -10 10 3 8 8 -5 18 -17 13 -17 14 2 8
17 -5 18 -4 5 6 -13 10 -13 11 0 7 8 -2 14 -10 12 -16 -1 -8 2 -9 10 -5 9 6 9
3 -1 -9 -16 -20 -1 -23 18 -4 7 6 12 8 11 2 -6 -27 0 -37 13 -26 17 14 28 4
20 -17 -4 -10 -3 -14 1 -11 4 4 9 17 11 29 6 30 11 34 19 15 3 -9 2 -14 -2
-11 -4 2 -7 -12 -7 -32 0 -29 -4 -36 -17 -34 -9 1 -19 -2 -23 -8 -3 -6 0 -7 9
-4 18 7 22 -11 4 -22 -6 -4 -8 -3 -5 3 3 5 0 10 -8 10 -8 0 -11 -5 -8 -10 3
-6 1 -7 -6 -3 -6 4 -9 12 -6 17 4 5 1 9 -4 9 -13 0 -14 -12 -3 -26 4 -5 0 -2
-9 7 -14 16 -16 16 -28 -3 -7 -11 -18 -17 -26 -14 -7 2 -16 -2 -19 -10 -7 -19
24 -15 40 5 9 11 11 11 11 -3 0 -9 -5 -16 -11 -16 -6 0 -4 -5 4 -10 9 -6 10
-10 3 -10 -6 0 -15 5 -18 10 -4 6 -10 8 -14 5 -9 -5 -5 -131 5 -154 4 -9 7
-28 8 -43 0 -15 10 -34 21 -43 16 -12 17 -14 3 -9 -11 4 -18 1 -18 -6 0 -6 4
-9 10 -5 5 3 8 -7 7 -22 -1 -18 3 -27 11 -25 15 3 16 -14 2 -23 -8 -5 -8 -11
-1 -19 6 -7 8 -16 4 -20 -4 -4 1 -4 12 0 18 7 18 6 6 -9 -9 -12 -10 -17 -2
-17 7 0 10 -4 7 -8 -2 -4 0 -14 6 -22 8 -12 9 -12 4 2 -7 24 32 18 50 -7 16
-21 3 -45 -25 -45 -12 0 -13 -2 -3 -9 8 -4 13 -12 13 -17 -1 -5 4 -9 10 -9 6
0 17 -9 25 -19 8 -11 14 -16 14 -11 0 5 -7 16 -15 25 -14 15 -14 18 0 30 12
10 19 10 27 2 15 -15 28 -15 28 -2 0 5 -5 9 -11 7 -6 -1 -14 4 -17 12 -2 8 0
11 6 7 16 -10 25 13 12 29 -14 16 0 21 16 5 6 -6 15 -6 24 1 12 8 12 9 -4 7
-10 -2 -21 3 -23 10 -3 8 2 10 14 6 15 -5 15 -4 3 5 -8 6 -11 11 -7 11 4 0 3
9 -3 21 -11 20 -21 53 -22 77 -1 6 -4 12 -8 12 -3 0 -6 10 -7 23 -1 12 -4 33
-8 47 -5 21 -11 63 -14 114 -1 4 -8 5 -17 2 -10 -4 -13 -2 -8 6 5 7 3 8 -6 3
-9 -6 -11 -4 -5 5 6 9 4 11 -5 5 -9 -6 -11 -4 -5 4 5 9 10 10 18 2 24 -24 34
3 14 37 -5 7 -3 12 5 12 10 0 9 3 -2 10 -10 6 -20 4 -31 -6 -14 -13 -16 -12
-15 11 1 13 7 30 14 37 12 12 13 10 16 -14 3 -26 21 -16 21 12 1 16 -3 30 -8
30 -4 0 -5 5 -2 10 11 18 14 90 4 90 -5 0 -9 5 -9 11 0 5 5 7 10 4 6 -3 10 -1
10 4 0 17 -11 13 -36 -14 -27 -30 -44 -32 -39 -6 2 12 -2 18 -12 17 -10 -1
-17 8 -18 21 -1 18 1 20 12 11 12 -9 13 -5 9 29 -3 24 0 48 8 58 11 15 12 15
12 -4 0 -11 -4 -17 -8 -15 -11 7 -10 -8 2 -26 6 -10 10 -11 10 -2 0 6 5 12 10
12 6 0 3 -11 -5 -24 -11 -17 -13 -26 -5 -31 27 -17 36 40 11 69 -12 15 -13 20
-3 23 9 4 10 8 2 18 -8 10 -8 15 1 21 8 5 9 3 4 -6 -6 -9 -4 -11 5 -5 10 6 9
11 -5 22 -11 7 -24 13 -29 13 -6 0 -5 -4 2 -9z m56 -307 c3 -8 2 -12 -4 -9 -6
3 -10 10 -10 16 0 14 7 11 14 -7z m-57 -23 c7 7 9 1 8 -18 -3 -40 4 -47 27
-26 11 9 19 13 18 8 -2 -6 -1 -12 0 -15 1 -3 3 -13 5 -23 3 -14 0 -16 -9 -7
-10 7 -16 6 -25 -3 -8 -11 -6 -18 10 -33 12 -10 24 -19 28 -19 3 0 5 -2 4 -5
-1 -3 -5 -14 -9 -24 -5 -13 -4 -17 4 -12 7 4 10 -1 7 -14 -2 -11 0 -22 5 -25
4 -3 7 -13 6 -23 -2 -9 1 -20 7 -24 6 -3 -1 -5 -15 -5 -13 1 -25 7 -25 14 0 6
7 9 16 6 10 -4 9 0 -4 10 -13 10 -24 12 -31 6 -8 -6 -14 -4 -18 7 -4 9 -4 19
-1 22 3 3 5 0 5 -8 0 -9 3 -10 13 -1 8 6 16 8 19 5 3 -3 9 -1 12 5 4 6 -4 8
-21 5 -24 -3 -26 -2 -12 8 8 7 15 23 15 35 0 17 -4 20 -17 13 -13 -8 -16 -5
-13 15 1 14 -2 25 -8 25 -6 0 -7 7 -4 16 3 9 2 12 -5 9 -6 -4 -8 -13 -6 -19 3
-7 -1 -13 -8 -13 -8 0 -11 7 -7 16 3 9 -5 3 -17 -12 -19 -22 -21 -30 -11 -42
9 -11 9 -15 1 -15 -6 0 -11 -5 -11 -11 0 -8 6 -7 18 2 9 7 14 9 10 5 -4 -5 -2
-16 5 -24 7 -9 7 -13 1 -9 -7 4 -10 -2 -9 -18 2 -18 -1 -22 -13 -17 -10 3 -12
7 -4 10 7 2 12 8 12 13 0 6 -5 7 -12 3 -6 -4 -8 -3 -4 4 3 6 2 13 -3 17 -5 3
-10 13 -10 23 0 9 -2 43 -4 74 -3 47 -1 56 9 47 20 -16 32 -3 29 31 -2 29 -1
30 14 16 12 -11 20 -13 28 -5z m-4 -120 c14 -2 7 -21 -9 -21 -8 0 -13 4 -10 8
3 5 -1 9 -8 9 -11 0 -11 -4 -4 -17 6 -10 20 -16 32 -15 34 2 39 -6 16 -30 -21
-22 -23 -44 -5 -57 5 -4 15 -2 22 3 9 8 11 4 7 -16 -4 -22 -2 -26 13 -21 10 3
25 1 33 -4 8 -5 11 -10 7 -10 -4 0 -3 -9 3 -21 11 -20 21 -53 22 -76 1 -7 6
-13 12 -13 6 0 -2 -12 -17 -25 -16 -14 -33 -22 -39 -19 -7 4 -8 2 -4 -5 4 -6
15 -10 23 -9 9 2 18 -3 21 -11 3 -8 0 -11 -6 -7 -6 3 -25 -8 -42 -26 -23 -23
-29 -27 -21 -11 6 12 15 25 21 28 9 6 -7 54 -19 56 -43 5 -59 14 -47 26 4 4
12 1 17 -7 9 -12 10 -12 5 3 -7 23 6 22 21 -2 13 -21 47 -21 67 -1 8 8 7 11
-3 8 -7 -2 -16 3 -18 10 -3 6 1 10 9 9 7 -2 10 -2 5 0 -4 3 -5 9 -2 13 3 5 -7
3 -22 -5 -35 -19 -40 -19 -40 0 0 8 9 13 21 12 17 -2 20 3 18 23 -4 25 -3 25
13 5 16 -20 16 -20 5 2 -7 15 -16 20 -28 16 -14 -5 -15 -3 -4 8 6 7 12 18 12
23 0 6 -7 0 -16 -12 -8 -12 -20 -22 -26 -22 -7 0 -6 5 2 15 10 12 9 16 -4 21
-9 3 -14 10 -11 15 7 10 -30 31 -38 22 -10 -10 3 -23 17 -17 7 3 13 -1 13 -8
0 -7 2 -19 4 -27 2 -7 -2 -16 -9 -18 -7 -3 -12 -1 -11 4 3 19 -2 33 -12 33 -8
0 -7 -6 2 -17 12 -15 12 -16 -6 -10 -19 7 -19 6 -2 -7 9 -7 17 -17 17 -21 0
-4 -6 -2 -13 4 -8 6 -17 8 -20 5 -7 -7 -2 22 8 47 4 10 -2 20 -17 27 -18 9
-19 11 -4 9 12 -1 20 5 22 17 1 10 8 22 14 26 8 5 6 9 -6 14 -9 3 -14 9 -10
13 3 3 -1 14 -10 24 -19 21 -11 39 14 34 9 -2 20 -4 25 -4z m54 -215 c1 -5 7
-12 14 -17 8 -4 -1 -7 -22 -5 -19 2 -43 0 -53 -4 -18 -6 -18 -7 -3 -13 9 -3
17 -2 17 3 0 5 7 7 16 3 15 -5 15 -7 0 -15 -10 -5 -24 -5 -37 3 -22 11 -22 11
6 33 28 22 58 28 62 12z m30 -73 c3 -9 -8 -10 -35 -4 -2 1 0 6 3 12 8 12 27 7
32 -8z"/>
<path d="M825 1672 c4 -22 -18 -47 -32 -39 -5 3 -9 -10 -9 -30 l0 -35 23 28
c13 16 23 25 23 20 0 -5 7 -3 15 4 14 12 20 7 15 -15 -1 -5 7 -2 18 8 10 9 22
14 27 10 4 -5 5 -2 1 5 -6 9 -11 10 -21 2 -16 -13 -34 7 -29 33 1 11 0 16 -3
13 -4 -3 -12 -1 -19 5 -10 8 -12 6 -9 -9z m21 -30 c-2 -9 -8 -17 -14 -17 -6 0
-14 -3 -18 -7 -4 -5 -12 -8 -17 -8 -5 0 2 9 17 21 14 11 23 25 20 31 -4 6 -2
8 4 5 5 -4 9 -15 8 -25z"/>
<path d="M910 1470 c0 -5 5 -10 11 -10 5 0 7 5 4 10 -3 6 -8 10 -11 10 -2 0
-4 -4 -4 -10z"/>
<path d="M859 1513 c-13 -16 -12 -17 4 -4 9 7 17 15 17 17 0 8 -8 3 -21 -13z"/>
<path d="M756 1821 c-4 -6 -1 -11 6 -11 10 0 10 -2 -1 -9 -10 -6 -10 -10 -1
-16 9 -6 9 -9 -1 -16 -7 -4 -10 -11 -6 -16 10 -10 27 16 21 32 -3 8 3 11 18
10 38 -4 39 -5 33 -15 -3 -6 1 -7 12 -4 17 5 17 5 0 -6 -10 -6 -14 -16 -10
-23 4 -7 -2 -5 -12 3 -15 12 -17 12 -10 1 5 -10 4 -12 -4 -7 -9 6 -9 11 0 22
6 8 9 18 5 21 -12 13 -26 -21 -20 -52 3 -21 2 -26 -5 -15 -5 8 -7 19 -3 25 3
5 -2 3 -12 -4 -17 -14 -17 -16 0 -28 16 -12 21 -11 32 4 7 10 23 18 35 18 12
1 28 4 35 8 6 5 16 6 20 3 5 -3 9 1 9 9 0 8 -5 13 -11 12 -6 -1 -10 6 -9 17 1
12 -2 15 -9 8 -11 -11 -41 -5 -33 7 2 4 -9 7 -26 6 -17 -1 -33 4 -38 13 -6 10
-10 11 -15 3z m107 -72 c-8 -8 -13 -7 -18 2 -5 8 -4 10 3 5 7 -4 12 -2 12 5 0
7 3 9 7 6 4 -4 2 -12 -4 -18z"/>
<path d="M5055 1700 c-3 -5 -1 -10 4 -10 6 0 11 5 11 10 0 6 -2 10 -4 10 -3 0
-8 -4 -11 -10z"/>
<path d="M889 1698 c-5 -18 -6 -38 -1 -34 7 8 12 36 6 36 -2 0 -4 -1 -5 -2z"/>
<path d="M5136 1673 c-6 -14 -5 -15 5 -6 7 7 10 15 7 18 -3 3 -9 -2 -12 -12z"/>
<path d="M5155 1650 c-4 -6 -10 -8 -14 -6 -4 3 -8 -1 -8 -9 0 -13 4 -12 19 2
18 16 22 23 14 23 -3 0 -8 -5 -11 -10z"/>
<path d="M5075 1630 c10 -11 20 -20 23 -20 3 0 -3 9 -13 20 -10 11 -20 20 -23
20 -3 0 3 -9 13 -20z"/>
<path d="M5134 1561 c0 -11 5 -17 13 -14 10 4 11 9 2 19 -15 18 -15 18 -15 -5z"/>
<path d="M5086 1561 c-3 -5 1 -11 9 -14 9 -4 12 -1 8 9 -6 16 -10 17 -17 5z"/>
<path d="M5190 1560 c0 -5 5 -10 11 -10 5 0 7 5 4 10 -3 6 -8 10 -11 10 -2 0
-4 -4 -4 -10z"/>
<path d="M5195 1500 c-3 -5 -1 -10 4 -10 6 0 11 5 11 10 0 6 -2 10 -4 10 -3 0
-8 -4 -11 -10z"/>
<path d="M5090 1490 c-9 -6 -10 -10 -3 -10 6 0 15 5 18 10 8 12 4 12 -15 0z"/>
<path d="M5158 1493 c7 -3 16 -2 19 1 4 3 -2 6 -13 5 -11 0 -14 -3 -6 -6z"/>
<path d="M5119 1483 c0 -5 -2 -16 -4 -26 -2 -11 -1 -16 3 -13 8 8 14 46 7 46
-3 0 -5 -3 -6 -7z"/>
<path d="M5157 1453 c3 -8 0 -13 -7 -11 -7 2 -14 -3 -15 -10 -2 -7 -1 -8 2 -2
2 5 9 8 13 5 5 -3 13 3 19 13 7 14 6 19 -4 19 -7 0 -11 -7 -8 -14z"/>
<path d="M5080 1436 c0 -2 7 -7 16 -10 8 -3 12 -2 9 4 -6 10 -25 14 -25 6z"/>
<path d="M5190 1386 c0 -2 7 -7 16 -10 8 -3 12 -2 9 4 -6 10 -25 14 -25 6z"/>
<path d="M5100 1373 c0 -7 5 -15 10 -18 6 -4 8 -9 6 -13 -2 -4 2 -16 10 -27 8
-10 14 -14 14 -8 0 7 -5 15 -10 18 -6 4 -8 9 -6 13 2 4 -2 16 -10 27 -8 10
-14 14 -14 8z"/>
<path d="M5160 1356 c0 -8 4 -17 9 -20 5 -4 7 3 4 14 -6 23 -13 26 -13 6z"/>
<path d="M5196 1333 c-6 -14 -5 -15 5 -6 7 7 10 15 7 18 -3 3 -9 -2 -12 -12z"/>
<path d="M5066 1322 c-2 -4 4 -8 15 -8 10 0 19 4 19 8 0 4 -6 8 -14 8 -8 0
-17 -4 -20 -8z"/>
<path d="M5153 1305 c0 -8 4 -12 9 -9 5 3 6 10 3 15 -9 13 -12 11 -12 -6z"/>
<path d="M5110 1305 c0 -5 5 -17 10 -25 5 -8 10 -10 10 -5 0 6 -5 17 -10 25
-5 8 -10 11 -10 5z"/>
<path d="M5188 1303 c7 -3 16 -2 19 1 4 3 -2 6 -13 5 -11 0 -14 -3 -6 -6z"/>
<path d="M5070 1291 c0 -7 -4 -9 -10 -6 -5 3 -10 1 -10 -4 0 -6 4 -11 9 -11
13 0 25 20 17 27 -3 4 -6 1 -6 -6z"/>
<path d="M5170 1280 c0 -5 5 -10 10 -10 6 0 10 5 10 10 0 6 -4 10 -10 10 -5 0
-10 -4 -10 -10z"/>
<path d="M5068 1248 c-10 -10 -14 -18 -9 -18 10 0 36 29 30 34 -2 1 -12 -6
-21 -16z"/>
<path d="M5134 1255 c-4 -8 -10 -12 -15 -9 -5 3 -12 -2 -15 -10 -3 -9 -10 -14
-15 -11 -4 3 -13 -5 -19 -17 -10 -21 -10 -21 3 -6 8 10 17 15 20 11 4 -3 9 2
13 11 3 9 10 14 15 11 4 -3 13 4 19 15 6 11 8 20 5 20 -3 0 -8 -7 -11 -15z"/>
<path d="M5155 1250 c-3 -6 1 -7 9 -4 18 7 21 14 7 14 -6 0 -13 -4 -16 -10z"/>
<path d="M867 1225 c-8 -18 11 -31 25 -17 11 11 3 32 -12 32 -4 0 -10 -7 -13
-15z m23 -5 c0 -5 -5 -10 -11 -10 -5 0 -7 5 -4 10 3 6 8 10 11 10 2 0 4 -4 4
-10z"/>
<path d="M1003 1223 c-7 -2 -13 -14 -12 -26 0 -22 0 -22 9 1 12 27 24 29 17 2
-5 -18 -1 -22 19 -19 10 1 43 -54 38 -63 -3 -4 0 -8 5 -8 16 0 14 8 -10 46
-11 19 -25 32 -30 28 -5 -3 -9 6 -9 20 0 26 -4 29 -27 19z"/>
<path d="M5020 1218 c-12 -8 -12 -9 3 -4 12 4 17 0 17 -15 0 -11 -4 -18 -9
-14 -11 6 -36 -33 -27 -43 3 -3 6 -1 6 5 0 8 7 8 24 0 13 -6 21 -17 19 -24 -4
-11 -9 -11 -19 -2 -8 7 -16 10 -19 8 -2 -3 5 -10 15 -17 16 -10 21 -9 30 8 9
17 7 22 -15 30 -14 5 -25 15 -25 21 0 8 4 8 13 1 10 -9 13 -4 15 18 3 33 -8
43 -28 28z"/>
<path d="M5133 1213 c-3 -7 -9 -11 -13 -8 -5 3 -11 1 -14 -4 -8 -13 24 -7 32
6 4 5 15 9 25 7 9 -1 17 2 17 6 0 14 -42 7 -47 -7z"/>
<path d="M5069 1178 c-11 -8 -11 -9 3 -4 10 3 20 1 23 -4 3 -5 -2 -11 -10 -13
-12 -4 -12 -5 1 -3 10 0 19 6 21 12 5 16 -21 24 -38 12z"/>
<path d="M5134 1176 c-3 -7 -4 -17 -3 -22 4 -21 -2 -28 -11 -14 -7 12 -9 10
-7 -8 0 -12 4 -22 8 -22 10 0 22 33 20 54 -2 12 1 16 10 11 8 -5 10 -4 5 3 -9
16 -15 15 -22 -2z"/>
<path d="M935 1160 c3 -5 11 -10 16 -10 6 0 7 5 4 10 -3 6 -11 10 -16 10 -6 0
-7 -4 -4 -10z"/>
<path d="M999 1163 c20 -8 50 -40 44 -47 -4 -3 -1 -6 5 -6 7 0 12 3 12 8 0 12
-20 38 -20 27 0 -5 -5 -2 -11 8 -5 9 -18 17 -27 16 -12 0 -13 -2 -3 -6z"/>
<path d="M978 1148 c5 -5 16 -8 23 -6 8 3 3 7 -10 11 -17 4 -21 3 -13 -5z"/>
<path d="M4960 1140 c-8 -5 -12 -11 -9 -14 3 -3 14 1 25 9 21 16 8 20 -16 5z"/>
<path d="M906 1127 c3 -10 9 -15 12 -12 3 3 0 11 -7 18 -10 9 -11 8 -5 -6z"/>
<path d="M953 1120 c-1 -11 2 -20 5 -20 4 0 8 9 9 20 1 11 -2 20 -5 20 -4 0
-8 -9 -9 -20z"/>
<path d="M981 1118 c-1 -9 3 -19 9 -23 5 -3 7 -12 4 -19 -7 -19 15 -31 29 -16
9 10 8 12 -6 7 -11 -4 -17 -2 -16 6 1 6 -3 23 -9 37 -7 17 -11 20 -11 8z"/>
<path d="M1000 1124 c0 -3 11 -19 24 -35 21 -24 25 -26 23 -10 0 11 -4 18 -7
16 -8 -5 -30 22 -23 29 4 3 1 6 -5 6 -7 0 -12 -3 -12 -6z"/>
<path d="M4981 1121 c-12 -8 -9 -11 12 -16 24 -6 26 -10 15 -24 -12 -14 -11
-14 4 -2 20 15 15 31 -8 31 -8 0 -12 5 -9 10 8 12 4 12 -14 1z"/>
<path d="M5075 1120 c-8 -13 4 -32 16 -25 15 10 9 -9 -11 -33 -17 -21 -21 -22
-34 -9 -8 8 -12 18 -8 23 4 5 -1 2 -10 -5 -10 -7 -17 -23 -17 -35 2 -20 2 -19
6 2 4 19 7 21 19 11 12 -10 12 -14 2 -20 -11 -7 -11 -9 0 -9 17 0 73 62 68 75
-2 5 -9 9 -15 8 -15 -4 -14 14 2 20 9 4 9 6 0 6 -6 1 -15 -3 -18 -9z"/>
<path d="M4926 1105 c-3 -9 -10 -13 -16 -10 -6 3 -7 -1 -4 -10 5 -11 2 -15 -7
-13 -16 3 -26 -15 -11 -20 11 -3 57 56 49 64 -2 3 -7 -2 -11 -11z"/>
<path d="M925 1100 c-3 -5 -1 -10 4 -10 6 0 11 5 11 10 0 6 -2 10 -4 10 -3 0
-8 -4 -11 -10z"/>
<path d="M1097 1103 c-4 -3 -7 -13 -7 -22 1 -13 3 -13 11 2 11 19 8 33 -4 20z"/>
<path d="M4954 1102 c3 -5 0 -13 -6 -15 -8 -3 -6 -6 5 -6 19 -1 23 14 5 25 -6
4 -8 3 -4 -4z"/>
<path d="M1061 1089 c-1 -19 26 -45 36 -35 3 3 1 6 -6 6 -6 0 -16 10 -21 23
-6 15 -9 17 -9 6z"/>
<path d="M946 1081 c-4 -5 3 -7 14 -4 23 6 26 13 6 13 -8 0 -17 -4 -20 -9z"/>
<path d="M4976 1074 c-4 -9 -4 -19 -1 -22 2 -3 7 3 11 12 4 9 4 19 1 22 -2 3
-7 -3 -11 -12z"/>
<path d="M5050 1080 c0 -5 5 -10 10 -10 6 0 10 5 10 10 0 6 -4 10 -10 10 -5 0
-10 -4 -10 -10z"/>
<path d="M1113 1061 c1 -15 4 -17 14 -9 9 7 13 7 13 -1 0 -6 -10 -16 -22 -21
-16 -6 -18 -9 -7 -9 26 -1 44 26 29 44 -17 21 -29 19 -27 -4z"/>
<path d="M960 1060 c-13 -8 -12 -10 3 -10 10 0 15 -4 12 -10 -3 -5 -1 -10 4
-10 13 0 14 10 3 27 -5 8 -13 9 -22 3z"/>
<path d="M4941 1054 c12 -15 11 -16 -11 -10 -22 6 -21 5 5 -10 17 -10 32 -16
35 -15 2 1 7 -6 11 -16 5 -13 8 -14 8 -3 0 8 -11 27 -24 43 -25 29 -47 39 -24
11z"/>
<path d="M4850 1053 c5 -2 8 -9 4 -14 -3 -5 2 -12 10 -15 9 -3 16 -10 16 -16
0 -5 -4 -6 -10 -3 -5 3 -10 1 -10 -5 0 -21 25 -4 26 17 1 14 -3 20 -13 16 -8
-3 -13 0 -11 7 2 7 -3 14 -10 16 -7 1 -8 0 -2 -3z"/>
<path d="M1030 1041 c0 -4 14 -8 30 -8 17 0 28 2 25 5 -8 8 -55 11 -55 3z"/>
<path d="M1154 1029 c-3 -5 -1 -16 5 -23 6 -7 8 -16 4 -19 -10 -11 -23 -8 -20
4 1 6 -5 14 -13 16 -13 4 -13 3 0 -6 8 -6 11 -11 6 -11 -6 0 -5 -5 2 -12 8 -8
15 -8 27 2 11 9 13 16 5 24 -16 16 -12 30 5 16 9 -7 15 -8 15 -2 0 14 -28 23
-36 11z"/>
<path d="M4828 1022 c9 -10 19 -17 21 -16 6 5 -20 34 -30 34 -5 0 -1 -8 9 -18z"/>
<path d="M995 1020 c-9 -14 2 -28 36 -45 16 -9 27 -21 23 -26 -4 -7 0 -7 14 0
12 7 23 7 27 2 3 -5 -2 -12 -10 -14 -11 -3 -10 -4 2 -3 10 1 17 8 15 15 -2 10
5 12 25 7 23 -5 25 -4 10 5 -10 6 -25 8 -32 5 -8 -3 -19 3 -25 12 -11 16 -11
16 -6 0 7 -22 4 -22 -34 0 -16 10 -27 22 -22 27 4 5 1 5 -5 1 -7 -4 -13 -3
-13 3 0 5 6 12 13 14 9 4 9 6 0 6 -6 1 -15 -3 -18 -9z"/>
<path d="M1050 1020 c0 -5 5 -10 11 -10 5 0 7 5 4 10 -3 6 -8 10 -11 10 -2 0
-4 -4 -4 -10z"/>
<path d="M4912 1016 c7 -8 15 -12 17 -11 5 6 -10 25 -20 25 -5 0 -4 -6 3 -14z"/>
<path d="M1030 1011 c0 -10 19 -25 25 -20 1 2 -3 10 -11 17 -8 7 -14 8 -14 3z"/>
<path d="M1081 1015 c0 -5 3 -16 8 -23 7 -11 9 -10 14 3 4 9 3 14 -2 10 -5 -3
-12 1 -14 7 -3 7 -6 9 -6 3z"/>
<path d="M4770 1005 c0 -12 -6 -15 -20 -10 -14 5 -20 2 -20 -9 0 -9 -5 -16
-11 -16 -5 0 -7 6 -3 13 6 9 5 9 -7 0 -14 -11 -19 -13 -40 -13 -5 0 -7 -4 -4
-10 3 -5 2 -10 -4 -10 -5 0 -11 3 -14 8 -2 4 -2 1 -1 -5 2 -7 -1 -13 -6 -13
-6 0 -10 5 -10 10 0 7 -6 7 -17 2 -10 -5 -24 -7 -32 -4 -10 3 -11 -2 -6 -19 6
-22 6 -22 -6 -6 -10 12 -24 16 -49 13 -19 -2 -41 -4 -48 -5 -7 0 -12 -7 -10
-15 2 -8 -1 -15 -7 -15 -5 0 -9 7 -7 15 2 10 -4 13 -20 10 -13 -3 -27 -5 -33
-5 -5 -1 -3 -6 5 -11 13 -8 13 -10 1 -10 -11 0 -10 -3 3 -13 16 -12 16 -14 2
-14 -9 0 -16 5 -16 11 0 6 -5 4 -10 -4 -7 -11 -10 -11 -10 -2 0 7 -12 0 -26
-15 l-26 -28 21 29 c11 15 18 32 15 37 -3 5 0 9 5 9 6 0 11 -5 11 -11 0 -5 4
-8 10 -4 13 8 2 32 -15 32 -8 0 -15 -3 -15 -6 0 -3 -22 -6 -50 -6 -27 0 -50 3
-50 7 0 3 -8 5 -17 3 -10 -2 -18 -4 -18 -5 0 -1 -8 -3 -17 -5 -10 -2 -18 0
-18 4 0 4 -9 7 -20 7 -11 0 -20 -5 -20 -11 0 -5 -4 -4 -9 3 -7 11 -9 10 -14
-3 -4 -9 -3 -13 3 -10 6 3 10 1 10 -6 0 -9 3 -9 14 0 15 12 49 4 41 -9 -3 -5
-1 -11 4 -15 6 -3 8 4 6 16 -4 17 -2 19 10 9 11 -9 15 -9 15 -1 0 6 7 11 15
11 8 0 15 -5 15 -11 0 -8 5 -8 15 1 12 10 18 10 30 0 10 -9 15 -9 15 -1 0 15
27 14 36 -1 5 -7 2 -9 -8 -5 -9 3 -21 0 -27 -6 -15 -15 -41 -18 -41 -4 0 5 -2
8 -5 5 -12 -11 8 -39 24 -34 13 5 13 3 -2 -8 -16 -12 -16 -14 -2 -20 9 -3 13
-2 10 3 -3 5 0 13 6 17 8 5 9 3 4 -7 -5 -8 -4 -11 0 -6 9 8 45 -20 45 -36 0
-5 -8 -1 -17 10 -10 10 -13 12 -8 3 9 -13 8 -13 -10 0 -19 14 -19 14 -5 -4 9
-12 10 -17 3 -12 -9 5 -11 2 -6 -10 5 -13 2 -15 -15 -9 -14 4 -22 2 -22 -5 0
-6 -5 -8 -11 -5 -6 4 -8 14 -5 24 5 12 2 11 -9 -3 -8 -11 -15 -23 -15 -26 0
-3 27 -6 60 -6 33 0 60 5 60 10 0 4 6 4 13 -2 7 -6 18 -7 26 -3 7 5 32 7 57 6
33 -2 44 1 44 12 0 9 5 11 13 6 17 -11 38 -13 32 -3 -3 5 10 7 30 6 21 -2 32
0 29 6 -4 6 2 7 16 3 19 -6 22 -4 17 9 -5 12 -3 15 5 9 19 -11 48 -11 41 0 -4
6 1 8 12 4 9 -4 24 -2 31 4 8 6 14 9 14 5 0 -4 11 1 24 9 16 11 22 22 19 35
-3 11 0 20 6 20 10 0 15 -20 12 -45 -1 -5 6 -1 15 10 8 11 20 19 25 17 6 -1 8
2 4 8 -3 5 -2 10 4 10 5 0 11 -3 14 -7 2 -5 2 -2 0 6 -2 8 2 11 11 8 11 -4 13
-1 9 11 -6 15 -4 15 10 4 14 -12 20 -10 42 12 14 14 27 25 28 23 1 -1 22 12
46 30 32 23 38 32 23 30 -11 0 -19 -4 -17 -7 2 -4 -9 -17 -25 -29 -17 -12 -30
-17 -30 -12 0 5 5 13 10 16 6 3 10 11 10 16 0 6 -4 8 -9 5 -5 -4 -11 -3 -14 1
-2 5 -2 2 0 -5 4 -18 -23 -68 -42 -75 -8 -4 -15 -2 -15 3 0 6 4 10 8 10 5 0
14 11 20 25 18 40 14 44 -8 8 -22 -36 -32 -40 -49 -20 -8 10 -7 17 1 25 9 9 9
12 1 12 -6 0 -19 7 -27 16 -23 23 -66 28 -66 9z m48 -9 c7 -4 11 -15 7 -23 -4
-13 -3 -13 9 -4 11 9 14 7 14 -14 0 -20 -3 -23 -14 -14 -10 8 -14 8 -14 0 0
-11 12 -15 40 -12 8 1 -1 -12 -20 -28 -27 -23 -37 -27 -43 -16 -5 9 -19 13
-38 10 -38 -5 -45 -11 -24 -19 11 -4 14 -2 9 6 -4 7 -3 8 5 4 6 -4 9 -11 6
-16 -3 -4 -1 -10 5 -12 6 -2 2 -8 -8 -14 -13 -9 -21 -8 -31 4 -12 12 -11 13
10 7 18 -5 20 -4 9 4 -8 6 -24 8 -35 5 -16 -5 -17 -4 -8 6 6 7 9 19 6 28 -5
11 -3 13 7 7 8 -5 18 -1 27 10 7 11 13 13 13 7 0 -7 5 -12 12 -12 9 0 9 3 0
12 -7 7 -12 17 -12 23 1 5 8 1 18 -10 33 -38 49 -47 55 -31 4 11 1 13 -10 9
-11 -4 -14 -3 -9 6 4 7 3 10 -5 9 -6 -2 -14 3 -16 10 -3 8 1 10 11 6 9 -3 16
-1 16 6 0 6 -4 9 -9 5 -5 -3 -12 -1 -16 5 -3 5 1 10 9 10 9 0 16 4 16 8 0 5
-7 9 -15 9 -14 0 -19 -10 -16 -29 0 -5 -3 -8 -9 -8 -5 0 -10 6 -11 13 0 9 -2
9 -6 -1 -2 -6 -9 -10 -13 -7 -14 9 0 34 16 28 7 -3 16 2 20 10 6 16 20 17 42
3z m-118 -58 c0 -4 -8 -5 -17 -2 -14 5 -15 4 -4 -4 7 -5 22 -7 32 -5 19 5 19
6 2 18 -10 8 -15 16 -12 19 11 11 40 -19 34 -36 -7 -18 -65 -21 -77 -3 -4 6
-8 1 -8 -10 -1 -20 -1 -20 -15 -1 -8 11 -15 15 -15 10 0 -15 -28 -13 -34 2 -3
8 6 11 30 8 24 -2 40 3 52 15 16 16 31 10 32 -11z m-190 -17 c0 -6 -5 -13 -12
-17 -7 -4 -8 -3 -4 4 5 8 1 10 -11 6 -15 -5 -16 -4 -3 5 19 13 30 14 30 2z
m49 -5 c7 -8 21 -13 32 -11 23 5 24 -4 4 -31 -9 -11 -13 -13 -10 -4 6 19 -51
54 -61 38 -4 -6 -3 -8 3 -5 5 3 10 0 10 -8 0 -8 -5 -11 -10 -8 -6 4 -7 1 -2
-8 7 -12 6 -12 -7 -1 -13 10 -17 10 -22 -4 -3 -9 -12 -14 -19 -11 -7 3 -21 -1
-32 -9 -13 -9 -14 -14 -5 -14 9 0 8 -5 -6 -16 -10 -8 -13 -12 -5 -8 10 5 12 3
6 -6 -6 -9 -4 -11 5 -5 9 6 11 4 5 -5 -6 -10 -4 -11 6 -4 8 5 21 9 29 9 8 0
16 6 16 13 1 6 2 16 3 20 0 4 10 8 21 8 11 0 20 -4 20 -8 0 -4 -7 -8 -15 -8
-23 0 -18 -16 5 -17 11 -1 18 2 15 7 -4 6 2 7 11 3 11 -4 13 -8 6 -11 -7 -2
-9 -9 -6 -14 4 -7 2 -8 -5 -4 -6 4 -18 3 -26 -4 -8 -7 -15 -7 -19 -1 -4 6 -13
8 -21 5 -8 -4 -13 -9 -10 -13 2 -5 -15 -7 -38 -6 -23 2 -47 -2 -54 -7 -7 -6
-14 -5 -18 2 -4 7 -12 7 -26 -1 -12 -6 -23 -8 -27 -5 -3 3 0 6 7 6 7 0 9 5 5
12 -5 8 -2 9 9 5 24 -9 32 11 13 32 -15 17 -15 19 0 32 10 8 30 15 46 15 39 2
40 2 31 17 -13 20 -12 34 3 34 8 0 12 -3 9 -5 -3 -3 0 -12 7 -19 9 -11 9 -17
-3 -24 -9 -6 -10 -9 -2 -9 7 0 17 9 23 21 7 12 18 18 26 15 8 -3 20 3 26 14
15 24 31 25 47 6z m98 -18 c25 14 49 -4 32 -24 -7 -9 -5 -16 11 -24 25 -13 16
-33 -11 -25 -11 4 -25 2 -32 -3 -19 -16 -48 9 -33 28 19 25 38 23 32 -2 -3
-13 -3 -18 0 -11 3 7 13 9 22 6 13 -4 14 -3 3 5 -8 6 -10 15 -6 22 5 9 4 11
-3 6 -7 -4 -12 -1 -12 6 0 10 -2 10 -9 0 -4 -8 -11 -13 -15 -13 -20 3 -26 0
-20 -11 5 -7 3 -8 -6 -3 -8 5 -11 4 -6 -3 3 -6 2 -13 -4 -17 -15 -9 -12 10 7
44 10 16 20 25 24 19 4 -7 13 -7 26 0z m-82 -43 c-3 -22 5 -29 27 -27 3 1 9
-5 12 -14 3 -9 2 -12 -5 -9 -5 4 -17 1 -26 -7 -15 -11 -16 -11 -10 5 4 11 1
20 -8 23 -8 4 -15 10 -15 16 0 5 5 6 12 2 6 -4 8 -3 5 3 -9 14 -67 9 -77 -7
-5 -8 -7 -17 -4 -21 2 -4 -4 -7 -15 -6 -15 1 -19 7 -17 22 2 11 9 19 16 17 7
-1 18 2 25 8 7 6 17 10 21 9 24 -4 36 2 30 16 -4 12 -2 13 13 6 12 -7 17 -19
16 -36z m-246 9 c-6 -7 -15 -11 -21 -8 -5 3 -4 12 3 20 6 7 15 11 21 8 5 -3 4
-12 -3 -20z"/>
<path d="M4470 880 c0 -5 5 -10 11 -10 5 0 7 5 4 10 -3 6 -8 10 -11 10 -2 0
-4 -4 -4 -10z"/>
<path d="M4349 844 c-6 -7 -4 -16 6 -24 9 -7 14 -19 11 -26 -6 -16 10 -28 19
-14 3 6 18 8 32 6 24 -5 24 -4 9 13 -9 10 -13 21 -9 25 4 3 8 12 9 19 2 16
-63 17 -77 1z m71 -3 c2 -1 -1 -6 -8 -13 -9 -9 -9 -15 0 -27 10 -13 10 -14 -2
-4 -11 10 -16 9 -27 -5 -11 -14 -12 -14 -8 -1 3 9 -1 22 -9 29 -9 7 -14 16
-11 20 3 5 41 6 65 1z"/>
<path d="M4360 834 c0 -1 6 -7 14 -13 10 -8 16 -8 24 2 9 10 6 13 -13 13 -14
0 -25 -1 -25 -2z"/>
<path d="M4506 798 c3 -5 10 -6 15 -3 13 9 11 12 -6 12 -8 0 -12 -4 -9 -9z"/>
<path d="M1197 1003 c-12 -11 -8 -23 7 -23 16 0 16 -31 1 -43 -6 -5 -4 -7 4
-5 19 5 22 48 4 55 -7 3 -10 9 -7 14 6 11 0 12 -9 2z"/>
<path d="M4896 995 c-3 -8 -1 -15 4 -15 6 0 10 7 10 15 0 8 -2 15 -4 15 -2 0
-6 -7 -10 -15z"/>
<path d="M1170 966 c0 -2 7 -7 16 -10 8 -3 12 -2 9 4 -6 10 -25 14 -25 6z"/>
<path d="M1240 960 c0 -5 5 -10 10 -10 6 0 10 5 10 10 0 6 -4 10 -10 10 -5 0
-10 -4 -10 -10z"/>
<path d="M3806 963 c-3 -3 4 -13 15 -21 18 -12 23 -13 31 -1 7 11 8 10 6 -5
-2 -10 2 -21 9 -23 7 -2 10 3 8 14 -2 10 -4 22 -4 26 -1 5 -9 7 -18 5 -10 -1
-23 1 -29 4 -6 4 -14 5 -18 1z"/>
<path d="M4875 960 c-3 -5 -2 -10 4 -10 5 0 13 5 16 10 3 6 2 10 -4 10 -5 0
-13 -4 -16 -10z"/>
<path d="M1279 958 c-5 -18 -6 -38 -1 -34 7 8 12 36 6 36 -2 0 -4 -1 -5 -2z"/>
<path d="M1154 936 c-3 -8 -1 -23 5 -33 9 -15 10 -13 5 10 -5 23 -4 26 12 20
12 -4 15 -3 10 5 -10 16 -25 15 -32 -2z"/>
<path d="M1415 941 c-3 -5 -2 -12 3 -15 5 -3 9 1 9 9 0 17 -3 19 -12 6z"/>
<path d="M3883 935 c0 -17 13 -20 22 -5 4 7 11 7 18 2 7 -5 23 -8 37 -7 14 1
31 -2 38 -7 8 -7 12 -6 12 3 0 11 2 11 10 -1 6 -9 10 -10 10 -3 0 17 -8 20
-81 27 -55 6 -66 4 -66 -9z"/>
<path d="M1107 925 c-16 -11 -16 -13 -2 -19 9 -3 14 -2 10 3 -3 5 1 11 7 14 7
2 11 7 8 10 -3 3 -13 0 -23 -8z"/>
<path d="M1468 933 c7 -3 16 -2 19 1 4 3 -2 6 -13 5 -11 0 -14 -3 -6 -6z"/>
<path d="M1646 925 c-11 -8 -15 -15 -9 -15 6 0 16 7 23 15 16 19 11 19 -14 0z"/>
<path d="M4040 928 c0 -9 5 -20 11 -23 17 -11 20 0 4 21 -13 17 -14 17 -15 2z"/>
<path d="M1221 920 c-9 -5 -4 -7 13 -7 29 0 32 2 13 10 -8 3 -20 2 -26 -3z"/>
<path d="M1350 920 c0 -5 5 -10 11 -10 5 0 7 5 4 10 -3 6 -8 10 -11 10 -2 0
-4 -4 -4 -10z"/>
<path d="M1385 919 c-4 -6 -4 -13 -1 -16 3 -4 6 -1 6 6 0 7 5 9 12 5 7 -4 8
-3 4 4 -9 15 -13 15 -21 1z"/>
<path d="M1535 919 c-4 -6 -4 -13 -1 -16 3 -4 6 -1 6 6 0 7 5 9 12 5 7 -4 8
-3 4 4 -9 15 -13 15 -21 1z"/>
<path d="M1590 923 c0 -6 8 -17 18 -24 16 -13 16 -13 2 6 -8 11 -16 22 -17 24
-2 2 -3 0 -3 -6z"/>
<path d="M1674 908 l-19 -23 23 19 c21 18 27 26 19 26 -2 0 -12 -10 -23 -22z"/>
<path d="M3882 904 c-17 -14 -32 -22 -32 -19 0 4 -12 0 -26 -10 -19 -12 -29
-14 -37 -6 -6 6 -16 11 -21 11 -6 0 -2 -7 8 -15 11 -8 16 -15 10 -15 -10 0 17
-20 29 -20 4 0 6 3 6 8 -5 27 2 32 24 17 22 -14 37 -12 37 6 0 5 -6 6 -14 3
-8 -3 -17 0 -22 7 -5 8 -3 10 5 5 7 -5 21 0 31 9 10 9 23 14 29 11 13 -8 26
13 15 24 -5 5 -23 -2 -42 -16z"/>
<path d="M4070 919 c0 -5 6 -7 13 -3 6 4 5 -1 -5 -11 -10 -11 -21 -14 -30 -9
-21 13 -40 14 -35 1 2 -7 12 -11 22 -9 9 2 15 0 12 -5 -3 -4 6 -9 20 -9 17 -2
23 2 19 12 -3 8 0 11 9 7 8 -3 13 -8 10 -12 -2 -4 6 -7 18 -6 28 3 48 -5 42
-15 -3 -5 0 -12 6 -16 8 -5 9 -3 4 6 -5 9 -4 11 3 6 19 -11 14 -29 -5 -21 -14
5 -15 3 -6 -5 7 -8 17 -9 26 -4 15 9 17 13 17 32 0 5 6 9 14 9 8 0 12 -6 8
-15 -4 -11 -1 -14 11 -9 11 4 15 1 12 -13 -2 -11 1 -22 6 -25 5 -4 7 -10 5
-14 -3 -3 4 -7 14 -7 10 0 17 7 15 16 -1 8 -8 14 -14 13 -6 -2 -12 2 -12 7 -2
15 -4 22 -18 54 -9 22 -14 26 -25 17 -7 -6 -16 -7 -20 -3 -4 4 -6 2 -4 -4 2
-7 0 -12 -4 -13 -22 -3 -28 0 -28 14 0 17 -16 20 -25 5 -10 -16 -45 7 -39 25
4 10 0 15 -15 15 -12 0 -21 -5 -21 -11z"/>
<path d="M3945 911 c3 -2 -3 -9 -12 -16 -11 -8 -13 -14 -5 -19 7 -4 12 -3 12
3 0 6 9 15 20 21 17 9 19 8 13 -7 -3 -10 -3 -15 2 -11 4 4 16 3 27 -3 15 -8
17 -14 8 -24 -7 -8 -7 -16 -2 -19 6 -3 13 2 17 12 6 16 7 16 21 -2 13 -18 19
-15 15 7 -1 5 4 5 11 1 19 -12 37 -13 44 -3 3 5 10 7 15 3 5 -3 7 -10 4 -15
-4 -5 0 -9 7 -9 9 0 9 -3 -2 -10 -11 -7 -11 -10 -2 -10 7 0 11 -4 8 -8 -3 -5
1 -9 9 -9 8 0 11 5 8 10 -3 6 -1 7 6 3 6 -4 8 -12 5 -18 -4 -6 -1 -8 7 -6 8 3
13 10 12 15 -1 5 9 9 22 9 13 0 21 -4 19 -8 -3 -5 -9 -6 -14 -3 -4 3 -13 -2
-20 -11 -7 -8 -19 -13 -27 -10 -8 3 -11 1 -8 -4 3 -6 2 -10 -3 -10 -6 0 -13 7
-16 16 -5 12 -9 14 -20 5 -10 -8 -16 -8 -26 4 -7 8 -17 12 -22 9 -6 -4 -5 -10
3 -15 11 -7 10 -9 -3 -9 -13 0 -17 6 -14 23 2 12 9 21 15 19 12 -2 15 11 4 21
-10 11 -33 -13 -33 -34 0 -21 -15 -25 -26 -7 -4 6 1 17 11 25 16 11 17 13 3
13 -9 0 -20 -5 -23 -10 -4 -6 -11 -8 -16 -5 -5 4 -9 2 -9 -4 0 -5 3 -11 8 -14
4 -2 2 -2 -5 -1 -7 2 -15 -1 -18 -6 -5 -8 -34 -8 -55 0 -3 2 -9 2 -13 1 -5 -1
-6 3 -2 9 3 6 10 8 15 5 4 -3 14 3 21 12 12 14 11 15 -8 9 -19 -6 -21 -4 -20
26 1 23 -2 33 -13 33 -8 0 -13 -7 -11 -15 11 -45 6 -75 -10 -65 -5 4 -4 15 3
28 10 20 10 21 -6 8 -13 -11 -20 -11 -28 -3 -17 17 -24 15 -25 -8 -1 -11 2
-18 8 -15 9 6 69 -24 69 -35 0 -7 52 -12 142 -14 36 0 65 -3 63 -6 -2 -3 19
-5 45 -5 27 0 47 3 44 6 -2 4 3 9 11 12 10 4 12 1 9 -11 -3 -9 3 -3 12 13 24
41 25 50 3 63 -11 7 -19 9 -18 5 7 -42 -49 -42 -57 0 -1 4 -2 11 -3 15 -2 12
-61 10 -61 -1 0 -5 -7 -4 -15 3 -8 6 -18 9 -23 6 -11 -6 -65 29 -60 40 2 5 -9
9 -24 9 -15 1 -25 -1 -23 -4z"/>
<path d="M1130 901 c0 -5 5 -13 10 -16 6 -3 10 -2 10 4 0 5 -4 13 -10 16 -5 3
-10 2 -10 -4z"/>
<path d="M1270 900 c0 -5 5 -10 10 -10 6 0 10 5 10 10 0 6 -4 10 -10 10 -5 0
-10 -4 -10 -10z"/>
<path d="M1199 890 c-4 -25 -3 -30 5 -29 5 0 13 -5 18 -13 8 -10 9 -10 5 2 -2
8 -10 14 -17 12 -7 -2 -9 5 -5 18 3 11 4 20 1 20 -3 0 -7 -4 -7 -10z"/>
<path d="M1231 884 c0 -11 3 -14 6 -6 3 7 2 16 -1 19 -3 4 -6 -2 -5 -13z"/>
<path d="M1320 889 c0 -5 -4 -7 -10 -4 -6 4 -7 -1 -3 -11 5 -13 3 -15 -7 -9
-9 6 -11 4 -5 -5 6 -10 11 -9 22 5 13 19 17 35 8 35 -3 0 -5 -5 -5 -11z"/>
<path d="M1577 879 c4 -13 8 -18 11 -10 2 7 -1 18 -6 23 -8 8 -9 4 -5 -13z"/>
<path d="M4270 896 c0 -2 7 -7 16 -10 8 -3 12 -2 9 4 -6 10 -25 14 -25 6z"/>
<path d="M1375 879 c-4 -6 -4 -13 -1 -16 3 -4 6 -1 6 6 0 7 5 9 12 5 7 -4 8
-3 4 4 -9 15 -13 15 -21 1z"/>
<path d="M1466 882 c-3 -5 1 -9 9 -9 8 0 12 4 9 9 -3 4 -7 8 -9 8 -2 0 -6 -4
-9 -8z"/>
<path d="M1553 883 c4 -3 1 -13 -6 -22 -11 -14 -10 -14 5 -2 16 12 16 31 1 31
-4 0 -3 -3 0 -7z"/>
<path d="M3945 869 c-6 -17 -9 -19 -16 -8 -6 10 -8 8 -7 -6 1 -12 9 -21 17
-22 9 -1 29 -4 44 -7 23 -4 26 -2 16 10 -13 16 -23 19 -15 5 4 -5 -4 -7 -16
-3 -21 5 -21 6 -2 12 10 4 22 6 26 4 4 -3 9 0 12 5 3 5 -1 11 -9 15 -8 3 -17
1 -20 -4 -4 -6 -12 -10 -18 -10 -8 0 -8 3 2 9 8 5 9 11 3 15 -6 3 -14 -3 -17
-15z"/>
<path d="M1270 865 c0 -5 5 -17 10 -25 5 -8 10 -10 10 -5 0 6 -5 17 -10 25 -5
8 -10 11 -10 5z"/>
<path d="M1445 851 c-11 -5 -23 -7 -27 -5 -4 3 -9 0 -13 -5 -7 -12 46 -3 60
10 11 11 7 11 -20 0z"/>
<path d="M1247 839 c7 -7 15 -10 18 -7 3 3 -2 9 -12 12 -14 6 -15 5 -6 -5z"/>
<path d="M1515 840 c-3 -5 -1 -10 4 -10 6 0 11 5 11 10 0 6 -2 10 -4 10 -3 0
-8 -4 -11 -10z"/>
<path d="M4115 840 c-4 -6 -10 -8 -14 -6 -10 6 -8 -25 3 -42 8 -14 26 -7 26
10 0 5 -8 7 -17 4 -16 -5 -16 -4 -3 7 8 6 16 18 18 25 3 15 -4 16 -13 2z"/>
<path d="M1310 829 c-12 -8 -10 -9 9 -4 17 5 22 4 16 -5 -5 -9 -4 -11 4 -6 6
4 9 12 6 17 -8 12 -16 11 -35 -2z"/>
<path d="M1436 822 c-3 -5 1 -9 9 -9 8 0 12 4 9 9 -3 4 -7 8 -9 8 -2 0 -6 -4
-9 -8z"/>
<path d="M3941 807 c-9 -12 -7 -14 9 -13 11 0 21 5 21 11 1 16 -17 17 -30 2z"/>
</g>
</svg>
